<svg width="235" height="238" viewBox="0 0 235 238" fill="none" xmlns="http://www.w3.org/2000/svg">
<path d="M213.841 149.331C214.863 139.762 212.625 132.002 207.209 126.272C200.255 118.933 189.587 116.555 181.708 115.841C187.971 113.064 194.075 110.723 199.355 109.064C208.636 105.164 204.04 91.9553 198.223 75.2327C197.213 72.326 196.168 69.3003 195.151 66.2201C193.297 60.5948 191.729 54.6952 190.236 48.9812C186.837 36.0959 184.752 28.7012 181.271 26.5377C178.244 24.6329 173.268 23.2985 166.83 27.7533C149.032 40.0667 130.05 91.804 126.159 113.835C125.601 113.445 125.027 113.112 124.426 112.854C124.41 112.838 124.393 112.828 124.375 112.819C125.441 106.993 127.042 96.8237 126.788 89.5995C127.249 89.3761 127.633 88.9405 127.667 88.2775C127.711 87.2985 127.757 86.3131 127.802 85.3342C127.887 83.4748 125.097 83.6652 125.008 85.517C124.963 86.496 124.917 87.4813 124.872 88.4603C124.841 89.1436 125.194 89.537 125.66 89.6854C125.9 96.6622 124.349 106.621 123.299 112.43C122.433 112.191 121.519 112.156 120.576 112.427C119.963 112.603 119.446 112.89 118.999 113.248C114.455 109.281 107.312 102.471 102.731 95.1995C103.069 94.769 103.194 94.1685 102.853 93.5652C102.3 92.6002 101.742 91.6341 101.194 90.6766C100.274 89.0771 97.9232 90.6627 98.8382 92.2546C99.3916 93.2132 99.944 94.1783 100.496 95.1433C100.815 95.6961 101.304 95.8553 101.772 95.7788C106.41 103.16 113.611 110.046 118.213 114.077C117.442 115.08 116.994 116.385 116.764 117.801C98.8307 105.533 49.921 84.1856 29.1099 89.1459C21.5865 90.9454 19.079 95.6296 18.3037 99.2283C17.4046 103.348 21.0722 110.035 27.6465 121.487C30.5609 126.571 33.5733 131.824 36.1831 137.112C37.6163 140.008 38.9802 142.898 40.294 145.672C47.8538 161.616 53.8183 174.205 62.9308 169.884C67.7187 167.026 73.5544 164.028 79.7997 161.209C74.8534 167.648 69.1293 177.375 69.4139 187.691C69.636 195.751 73.4578 202.796 80.7881 208.619C106.711 229.277 125.489 221.925 131.656 219.516C132.081 219.352 132.438 219.21 132.732 219.103C133.517 218.824 134.175 218.284 134.761 217.387C136.369 214.903 137.401 209.706 139.104 199.827C140.094 194.067 141.539 185.765 143.278 180.508C145.36 183.783 148.036 184.493 149.387 182.923C150.837 182.351 151.697 180.191 151.135 177.145C155.979 179.443 162.794 184.128 167.48 187.359C175.483 192.883 179.801 195.697 182.629 196.196C183.652 196.376 184.485 196.258 185.222 195.852C185.498 195.702 185.835 195.529 186.248 195.324C192.197 192.34 210.242 183.196 213.841 149.331ZM197.927 147.26C193.674 152.087 187.051 152.19 181.239 151.934C177.871 151.744 174.486 151.723 171.168 151.721C162.482 153.15 144.57 148.886 144.721 148.031C144.871 147.177 167.142 145.143 177.894 141.462C180.713 140.483 183.603 140.124 186.353 139.033C189.081 137.958 191.411 136.6 194.002 135.289C200.967 131.649 201.097 143.712 197.927 147.26ZM134.954 131.546C136.781 121.331 144.381 107.822 146.897 101.384C150.832 91.9051 152.272 81.5953 155.482 71.9881C158.119 63.4523 168.318 57.0313 171.798 69.3877C174.631 78.8815 147.466 126.48 137.869 139.419C136.846 136.629 135.863 133.972 134.954 131.546ZM182.822 81.8889C200.869 90.9391 167.54 121.456 159.586 113.007C159.585 113.013 172.362 76.9184 182.822 81.8889ZM181.845 123.873C183.99 124.549 188.212 126.856 188.039 129.469C187.659 135.362 178.091 137.695 173.725 138.886C170.855 139.645 167.973 139.925 165.161 140.893C162.13 142.021 159.253 143.361 156.193 144.107C153.355 144.679 143.611 146.385 143.708 144.746C143.708 144.746 154.555 138.89 156.35 136.796C158.131 134.712 162.381 132.581 165.182 130.041C167.863 127.673 170.059 126.497 173.456 125.433C176.239 124.553 178.978 122.983 181.845 123.873ZM196.405 96.7089C195.95 100.887 194.943 102.61 190.936 104.408C188.113 105.625 181.469 107.838 179.365 108.533C178.96 108.76 178.67 108.881 178.693 108.753C178.693 108.753 178.95 108.672 179.365 108.533C180.301 108.01 181.93 106.893 182.484 106.58C184.223 105.568 185.299 104.288 186.425 102.725C188.652 99.7395 188.64 95.7834 190.817 93.0809C194.138 88.6793 196.921 92.9849 196.405 96.7089ZM189.709 73.6586C190.67 77.0536 193.583 82.2167 194.406 85.6004C195.103 88.0679 193.144 89.5306 190.688 89.826C189.509 90.0553 189.3 83.2297 186.764 81.5109C184.24 79.7944 183.114 79.6886 182.557 78.8617C181.711 77.2422 183.431 75.499 184.346 74.3357C186.522 71.6397 188.283 68.8704 189.709 73.6586ZM185.269 62.61C184.02 66.5027 181.754 70.5074 179.366 73.6033C177.409 75.8941 174.103 82.6033 171.445 84.0421C171.445 84.0421 175.218 68.2291 176.44 65.3582C177.443 62.899 179.64 57.6568 181.752 56.1217C185.784 53.3091 185.974 60.244 185.269 62.61ZM174.099 33.6379C179.252 34.1095 184.18 45.5423 181.157 49.8507C179.252 52.6012 178.334 54.5851 176.522 57.6434C175.7 59.1145 173.825 67.0629 173.155 67.6732L168.581 48.0703C167.856 44.1276 168.657 33.1289 174.099 33.6379ZM157.266 52.5129C157.901 51.3068 163.149 39.9265 164.58 40.6226C165.907 41.148 169.194 54.9605 167.386 57.7479C166.475 59.1436 164.387 59.1597 162.242 60.4108C160.103 61.6629 157.906 64.1499 157.379 64.7126C156.313 63.5047 155.61 61.9039 155.47 60.2698C155.246 57.5876 156.156 54.8207 157.266 52.5129ZM145.226 75.6836C146.555 72.3943 147.74 63.6026 152.556 64.0676C158.484 64.7155 153.414 72.0407 152.146 74.9499C145.806 89.4758 142.708 104.977 134.66 118.42C134.666 118.422 142.779 83.0739 145.226 75.6836ZM122.915 136.656C123.97 139.014 125.137 141.604 126.354 144.316C110.762 142.626 59.1043 130.339 54.4866 121.643C48.3473 110.48 59.8287 107.193 67.5495 111.091C76.4129 115.29 84.5368 121.325 93.8191 124.889C100.014 127.432 114.59 131.002 122.915 136.656ZM64.0823 103.413C67.0973 99.4405 73.9905 104.623 77.183 105.882C83.9858 109.147 114.049 127.397 114.049 127.397C99.1912 124.194 86.3267 115.852 71.8901 110.624C69.0126 109.574 60.4548 108.356 64.0823 103.413ZM52.8448 99.007C55.2066 99.7546 57.7541 100.972 59.448 103.006C60.4845 104.235 61.0972 105.873 61.2042 107.515C60.4487 107.521 57.2078 107.479 54.8713 108.219C52.5179 108.983 51.0716 110.55 49.4768 110.275C46.2945 109.721 39.0147 97.7009 39.5626 96.3339C40.0803 94.776 51.5691 98.6629 52.8448 99.007ZM34.5204 115.248C29.4499 114.559 24.9393 102.935 28.1767 98.7173C31.567 94.2485 39.7472 101.234 41.9695 104.514L52.3707 121.495C51.4803 121.576 44.6832 117.517 43.1026 117.125C39.7428 116.381 37.7395 115.703 34.5204 115.248ZM40.5063 127.172C38.381 126.062 33.7191 121.134 38.4488 120.02C40.9667 119.484 46.1083 121.437 48.5067 122.377C51.3312 123.438 64.8848 131.497 64.8848 131.497C62.0458 132.513 55.1305 130.393 52.1829 130.284C48.392 129.953 44.0626 128.905 40.5063 127.172ZM50.112 149.934C48.3478 146.993 46.791 141.208 45.0991 138.148C42.7587 133.762 45.8982 134.342 49.2607 134.564C50.6921 134.677 53.0958 134.571 53.6238 136.326C53.8119 137.327 53.1132 138.243 52.5549 141.337C51.9954 144.437 56.5812 149.326 55.6108 150.042C53.701 151.699 51.3292 152.168 50.112 149.934ZM76.3601 154.39C74.423 155.512 68.3085 159.004 65.5149 160.306C61.516 162.098 59.6241 161.658 56.4208 159.12C53.4805 156.939 52.425 151.865 57.7685 152.383C61.1394 152.593 63.8786 155.335 67.4749 155.717C69.3359 155.933 70.9597 156.007 72.858 155.395C73.4484 155.201 75.3579 154.743 76.3601 154.39C76.7374 154.171 76.9715 154.041 76.9715 154.041C77.0803 154.113 76.7943 154.248 76.3601 154.39ZM55.5419 138.612C59.3119 127.276 93.1153 142.515 93.1153 142.515C93.4631 154.359 49.3458 158.521 55.5419 138.612ZM85.2684 166.856C86.6294 164.069 89.6037 163.083 92.1331 161.575C95.2175 159.748 97.5473 158.901 101.033 158.495C104.723 158.132 109.129 156.386 111.805 156.474C114.488 156.563 126.029 152.392 126.029 152.392C127.242 153.453 119.328 159.648 116.971 161.411C114.35 163.221 111.434 164.455 108.556 165.981C105.939 167.44 103.761 169.421 101.251 171.078C97.4102 173.566 89.2045 179.2 84.853 175.412C82.9424 173.737 84.2474 168.947 85.2684 166.856ZM84.7934 183.945C87.487 182.884 90.0237 182.06 92.6612 180.736C95.2987 179.413 97.5588 177.474 100.176 176.014C110.138 170.426 126.929 154.975 127.619 155.454C128.313 155.94 118.898 172.421 111.914 178.011C109.626 180.509 107.29 183.097 105.104 185.778C101.255 190.345 96.617 195.289 90.3389 195.176C85.7004 195.12 77.4559 186.685 84.7934 183.945ZM90.9293 208.182C88.7406 205.908 84.0274 204.064 82.9172 198.901C81.8071 193.738 95.7133 199.435 96.8865 199.635C99.2317 200.042 97.9811 208.041 97.9811 208.041C97.9811 208.041 93.1242 210.456 90.9293 208.182ZM110.693 206.766C109.259 209.5 106.562 210.905 103.446 210.044C98.0355 208.421 100.501 200.134 102.227 196.437C103.428 193.901 105.196 191.855 106.852 189.643C108.464 187.497 109.77 185.131 111.303 182.931C112.938 180.583 114.939 178.697 116.835 176.614C118.601 174.574 119.928 172.344 121.555 170.333C124.341 166.897 126.966 156.398 128.462 157.775C129.955 159.138 128.806 166.015 127.995 168.475C126.347 172.927 124.52 177.121 122.662 181.536C120.178 187.608 117.615 193.985 114.542 199.768C113.244 202.129 111.992 204.405 110.693 206.766ZM130.284 197.305C128.867 201.208 128.817 211.968 123.729 213.124C117.517 214.446 118.417 201.365 119.307 197.913C120.758 192.406 122.825 186.267 125.817 181.483C127.798 178.077 129.311 174.357 130.749 170.59C131.715 168.23 130.484 162.191 131.69 163.113C136.197 167.504 136.248 175.52 135.581 180.502C134.832 186.49 132.354 191.875 130.284 197.305ZM187.324 184.91C183.008 187.957 175.523 180.578 171.845 178.955C166.66 176.776 161.224 174.937 156.551 171.377C152.641 168.423 147.124 162.867 147.201 156.41C147.401 154.875 150.723 159.971 153.025 160.874C156.626 162.39 160.251 163.811 163.976 164.659C169.36 165.708 175.028 168.377 179.845 171.081C182.852 172.776 192.523 181.131 187.324 184.91ZM199.19 167.438C197.628 170.388 194.797 171.465 191.915 170.659C189.379 170.026 186.941 169.384 184.407 168.745C178.281 167.076 172.103 164.622 166.186 162.314C161.842 160.66 157.678 159.145 153.465 157.329C151.195 156.24 145.655 152.375 145.734 150.296C145.817 148.231 154.899 153.475 159.198 153.75C161.717 153.896 164.175 154.429 166.809 154.502C169.547 154.495 172.232 154.28 174.995 154.674C177.579 155.031 180.099 155.68 182.701 155.934C185.395 156.217 188.03 156.284 190.616 157.137C194.364 158.361 201.81 162.224 199.19 167.438ZM201.575 161.924C201.575 161.924 195.183 157.346 196.51 155.295C197.184 154.262 202.836 139.8 205.644 144.216C208.453 148.626 206.475 153.463 206.53 156.671C206.597 159.915 201.575 161.924 201.575 161.924Z" fill="#222222"/>
</svg>
