<svg width="32" height="32" viewBox="0 0 32 32" fill="none" xmlns="http://www.w3.org/2000/svg">
<path d="M30.6852 5.82623H5.66514L5.29322 1.30569C5.23239 0.566441 4.66454 0 3.98429 0H1.31418C0.588379 0 0 0.641957 0 1.43385C0 2.22575 0.588379 2.86771 1.31418 2.86771H2.78282C3.58541 12.6235 1.51112 -12.5916 4.29432 21.2408C4.40158 22.565 5.05736 24.0019 6.18705 24.9783C4.15026 27.8162 6.01127 32 9.32445 32C12.0744 32 14.0139 29.0076 13.0709 26.1735H20.2636C19.3218 29.004 21.2571 32 24.01 32C26.207 32 27.9943 30.0499 27.9943 27.6529C27.9943 25.2559 26.207 23.3058 24.01 23.3058H9.33334C8.33506 23.3058 7.46513 22.6487 7.08965 21.6913L28.0921 20.3445C28.6654 20.3078 29.1505 19.8689 29.2899 19.261L31.9602 7.60782C32.1672 6.70422 31.5403 5.82623 30.6852 5.82623V5.82623ZM9.32445 29.1323C8.57687 29.1323 7.96859 28.4686 7.96859 27.6529C7.96859 26.8372 8.57687 26.1735 9.32445 26.1735C10.0721 26.1735 10.6804 26.8372 10.6804 27.6529C10.6804 28.4686 10.0721 29.1323 9.32445 29.1323ZM24.01 29.1323C23.2623 29.1323 22.654 28.4686 22.654 27.6529C22.654 26.8372 23.2623 26.1735 24.01 26.1735C24.7576 26.1735 25.3659 26.8372 25.3659 27.6529C25.3659 28.4686 24.7576 29.1323 24.01 29.1323ZM26.9741 17.5436L6.73588 18.8412L5.90106 8.69387H29.002L26.9741 17.5436Z" fill="#BA0038"/>
</svg>
