<svg width="16" height="16" viewBox="0 0 16 16" fill="none" xmlns="http://www.w3.org/2000/svg">
<g clip-path="url(#clip0_2008_62)">
<path d="M13.4906 3.00001L10.7406 0.37001C10.6263 0.252348 10.4895 0.158938 10.3383 0.0953644C10.1871 0.031791 10.0246 -0.000640273 9.86062 9.57612e-06H5.86063C5.53433 0.00784287 5.22404 0.142989 4.99607 0.376566C4.7681 0.610143 4.64053 0.923622 4.64063 1.25001V12.25C4.64063 12.5815 4.77232 12.8995 5.00674 13.1339C5.24116 13.3683 5.5591 13.5 5.89062 13.5H12.6106C12.9421 13.5 13.2601 13.3683 13.4945 13.1339C13.7289 12.8995 13.8606 12.5815 13.8606 12.25V3.88001C13.8613 3.71599 13.8288 3.55352 13.7653 3.40232C13.7017 3.25112 13.6083 3.11429 13.4906 3.00001ZM12.6106 12.25H5.89062V1.25001H8.61062V3.88001C8.61062 4.21153 8.74232 4.52947 8.97674 4.76389C9.21116 4.99831 9.5291 5.13001 9.86062 5.13001H12.6106V12.25ZM12.6106 3.88001H9.86062V1.25001L12.6106 3.88001Z" fill="white"/>
<path d="M10.1106 14.75H3.39062V3.75H4.00062V2.5H3.39062C3.0591 2.5 2.74116 2.6317 2.50674 2.86612C2.27232 3.10054 2.14062 3.41848 2.14062 3.75V14.75C2.14062 15.0815 2.27232 15.3995 2.50674 15.6339C2.74116 15.8683 3.0591 16 3.39062 16H10.1106C10.4421 16 10.7601 15.8683 10.9945 15.6339C11.2289 15.3995 11.3606 15.0815 11.3606 14.75V14.12H10.1106V14.75Z" fill="white"/>
</g>
<defs>
<clipPath id="clip0_2008_62">
<rect width="16" height="16" fill="white"/>
</clipPath>
</defs>
</svg>
