<svg width="10" height="10" viewBox="0 0 10 10" fill="none" xmlns="http://www.w3.org/2000/svg">
<path d="M9.75385 0.246139C9.42566 -0.0820528 8.89357 -0.0820402 8.56539 0.246139L5 3.81153L1.4346 0.246139C1.10643 -0.0820402 0.574336 -0.0820528 0.246139 0.246139C-0.0820528 0.574331 -0.0820402 1.10644 0.246139 1.4346L3.81153 5L0.246139 8.56541C-0.0820402 8.89357 -0.0820528 9.42567 0.246139 9.75386C0.574334 10.082 1.10643 10.082 1.4346 9.75386L5 6.18845L8.56539 9.75386C8.89357 10.082 9.42565 10.082 9.75385 9.75386C10.082 9.42567 10.082 8.89357 9.75385 8.56541L6.18846 5L9.75385 1.4346C10.082 1.10644 10.082 0.574331 9.75385 0.246139Z" fill="#BA0038"/>
</svg>
