<svg width="40" height="40" viewBox="0 0 40 40" fill="none" xmlns="http://www.w3.org/2000/svg">
<path d="M32.1131 12H7.88689C7.39792 12 7 12.4026 7 12.8974V27.1028C7 27.5976 7.39792 28 7.88689 28H32.1131C32.6021 28 33 27.5976 33 27.1028V12.8974C33 12.4026 32.6021 12 32.1131 12V12ZM8.52502 14.2109L15.8125 19.1121L8.52502 25.5311V14.2109ZM20 20.0754L10.2873 13.5431H29.7127L20 20.0754ZM17.1297 19.9977L19.509 21.598C19.6582 21.6984 19.829 21.7486 20 21.7486C20.1708 21.7486 20.3418 21.6982 20.491 21.598L22.8703 19.9977L30.2033 26.4569H9.79674L17.1297 19.9977ZM24.1875 19.1119L31.475 14.2107V25.5311L24.1875 19.1119Z" fill="white"/>
<circle cx="20" cy="20" r="19.5" stroke="white"/>
</svg>
