<svg width="40" height="40" viewBox="0 0 40 40" fill="none" xmlns="http://www.w3.org/2000/svg">
<path fill-rule="evenodd" clip-rule="evenodd" d="M39 20C39 30.4934 30.4934 39 20 39C9.50659 39 1 30.4934 1 20C1 9.50659 9.50659 1 20 1C30.4934 1 39 9.50659 39 20ZM40 20C40 31.0457 31.0457 40 20 40C8.9543 40 0 31.0457 0 20C0 8.9543 8.9543 0 20 0C31.0457 0 40 8.9543 40 20ZM8 14.4966C8 10.9143 10.9143 8 14.4966 8H25.5034C29.0857 8 32 10.9143 32 14.4966V25.5036C32 29.0857 29.0857 32 25.5036 32H14.4966C10.9143 32 8 29.0857 8 25.5036V14.4966ZM25.5034 30.593C28.3099 30.593 30.593 28.3099 30.593 25.5036V14.4966C30.593 11.6901 28.3099 9.40698 25.5036 9.40698H14.4966C11.6901 9.40698 9.40698 11.6901 9.40698 14.4966V25.5036C9.40698 28.3099 11.6901 30.593 14.4966 30.593H25.5034ZM13.4375 19.9998C13.4375 16.3813 16.3813 13.4375 19.9998 13.4375C23.6183 13.4375 26.5621 16.3813 26.5621 19.9998C26.5621 23.6183 23.6183 26.5621 19.9998 26.5621C16.3813 26.5621 13.4375 23.6183 13.4375 19.9998ZM14.8445 19.9998C14.8445 22.8425 17.1573 25.1552 19.9998 25.1552C22.8425 25.1552 25.1552 22.8425 25.1552 19.9998C25.1552 17.1573 22.8425 14.8445 19.9998 14.8445C17.1573 14.8445 14.8445 17.1573 14.8445 19.9998ZM26.7185 11.1069C25.6491 11.1069 24.7794 11.9768 24.7794 13.046C24.7794 14.1153 25.6491 14.9852 26.7185 14.9852C27.7878 14.9852 28.6577 14.1153 28.6577 13.046C28.6577 11.9766 27.7878 11.1069 26.7185 11.1069ZM26.7185 13.5781C26.4251 13.5781 26.1864 13.3393 26.1864 13.046C26.1864 12.7524 26.4251 12.5139 26.7185 12.5139C27.012 12.5139 27.2507 12.7524 27.2507 13.046C27.2507 13.3393 27.012 13.5781 26.7185 13.5781Z" fill="white"/>
</svg>
