<svg width="16" height="15" viewBox="0 0 16 15" fill="none" xmlns="http://www.w3.org/2000/svg">
<path d="M8.34958 10.815C8.25983 10.9329 8.13301 11 8 11C7.86699 11 7.74017 10.9329 7.65042 10.815L5.1241 7.49601C4.94757 7.2641 4.96098 6.90421 5.15406 6.69217C5.34714 6.48014 5.64675 6.49622 5.82328 6.72813L7.52632 8.96553V0.568965C7.52632 0.254737 7.7384 0 8 0C8.2616 0 8.47368 0.254737 8.47368 0.568965V8.96553L10.1767 6.72813C10.3533 6.49622 10.6529 6.48014 10.846 6.69217C11.039 6.90421 11.0524 7.2641 10.8759 7.49601L8.34958 10.815Z" fill="white"/>
<path d="M1.23077 10.5C1.23077 10.2239 0.955258 10 0.615385 10C0.27552 10 4.2991e-07 10.2239 4.2991e-07 10.5V10.5366C-1.59803e-05 11.4483 -3.24494e-05 12.1832 0.0956065 12.7612C0.194905 13.3613 0.407328 13.8665 0.901211 14.2677C1.39509 14.6691 2.01694 14.8417 2.75549 14.9223C3.46685 15 4.37132 15 5.49344 15H10.5066C11.6287 15 12.5332 15 13.2446 14.9223C13.9831 14.8417 14.6049 14.6691 15.0988 14.2677C15.5927 13.8665 15.8051 13.3613 15.9044 12.7612C16 12.1832 16 11.4483 16 10.5366V10.5C16 10.2239 15.7245 10 15.3846 10C15.0448 10 14.7692 10.2239 14.7692 10.5C14.7692 11.4569 14.7679 12.1243 14.6846 12.6279C14.6037 13.1171 14.4556 13.3761 14.2285 13.5607C14.0014 13.7452 13.6826 13.8655 13.0805 13.9313C12.4607 13.9989 11.6393 14 10.4615 14H5.53846C4.36069 14 3.53926 13.9989 2.91948 13.9313C2.31742 13.8655 1.99858 13.7452 1.7715 13.5607C1.54441 13.3761 1.39635 13.1171 1.31541 12.6279C1.23207 12.1243 1.23077 11.4569 1.23077 10.5Z" fill="white"/>
</svg>
