<svg width="22" height="21" viewBox="0 0 22 21" fill="none" xmlns="http://www.w3.org/2000/svg">
<path fill-rule="evenodd" clip-rule="evenodd" d="M7.26159 1.69837C7.7163 2.07389 8.29565 2.25 8.75 2.25C9.1642 2.25 9.5 2.58579 9.5 3C9.5 3.41421 9.1642 3.75 8.75 3.75C8.02955 3.75 7.19852 3.50913 6.5 3.0045V9C6.5 9.1595 6.4502 9.3074 6.3653 9.429C5.96563 10.7712 4.72212 11.75 3.25 11.75C1.45507 11.75 0 10.2949 0 8.5C0 6.70507 1.45507 5.25 3.25 5.25C3.89432 5.25 4.49485 5.4375 5 5.76091V0H6.5C6.5 0.79785 6.8284 1.34061 7.26159 1.69837ZM5 8.5C5 7.5335 4.2165 6.75 3.25 6.75C2.2835 6.75 1.5 7.5335 1.5 8.5C1.5 9.4665 2.2835 10.25 3.25 10.25C4.2165 10.25 5 9.4665 5 8.5ZM18.3227 1.94109C17.651 2.11226 16.7715 2.47821 15.4952 3.01241L13.4952 3.84951C12.885 4.10492 12.4828 4.27436 12.1871 4.43763C11.9075 4.59205 11.7864 4.70818 11.7094 4.82394C11.6323 4.93969 11.572 5.09625 11.5375 5.41379C11.501 5.74954 11.5 6.18597 11.5 6.8475V8.8922L19.9997 5.49235C19.9978 4.38367 19.9848 3.58512 19.8966 2.98852C19.7973 2.31734 19.6272 2.0875 19.4425 1.96459C19.2579 1.84167 18.9802 1.77354 18.3227 1.94109ZM21.5 5.98252V5.94757C21.5 4.64216 21.5001 3.5776 21.3804 2.769C21.2567 1.93292 20.9808 1.18652 20.2736 0.71585C19.5664 0.24517 18.7713 0.27883 17.9523 0.48754C17.1602 0.68938 16.1782 1.10042 14.974 1.60446L12.88 2.48093C12.3155 2.71715 11.8373 2.91728 11.462 3.12457C11.0626 3.34512 10.7186 3.60525 10.4606 3.99288C10.2027 4.38052 10.0955 4.79827 10.0463 5.25181C10 5.67809 10 6.19649 10 6.80836V9.983C9.9997 9.9945 9.9997 10.006 10 10.0175V14.7609C9.4949 14.4375 8.8943 14.25 8.25 14.25C6.45507 14.25 5 15.7051 5 17.5C5 19.2949 6.45507 20.75 8.25 20.75C10.0449 20.75 11.5 19.2949 11.5 17.5C11.5 17.33 11.4869 17.163 11.4618 17H11.5V10.5078L20 7.10778V12.7609C19.4949 12.4375 18.8943 12.25 18.25 12.25C16.4551 12.25 15 13.7051 15 15.5C15 17.2949 16.4551 18.75 18.25 18.75C20.0449 18.75 21.5 17.2949 21.5 15.5C21.5 15.3831 21.4938 15.2676 21.4818 15.1538H21.5V6.01702C21.5003 6.00554 21.5003 5.99404 21.5 5.98252ZM18.25 13.75C17.2835 13.75 16.5 14.5335 16.5 15.5C16.5 16.4665 17.2835 17.25 18.25 17.25C19.2165 17.25 20 16.4665 20 15.5C20 14.5335 19.2165 13.75 18.25 13.75ZM8.25 15.75C7.2835 15.75 6.5 16.5335 6.5 17.5C6.5 18.4665 7.2835 19.25 8.25 19.25C9.2165 19.25 10 18.4665 10 17.5C10 16.5335 9.2165 15.75 8.25 15.75Z" fill="white"/>
</svg>
