<svg width="13" height="16" viewBox="0 0 13 16" fill="none" xmlns="http://www.w3.org/2000/svg">
<path d="M7.3125 0.800001L7.88702 0.234313C7.73467 0.0842894 7.52798 1.40195e-06 7.3125 1.40195e-06V0.800001ZM12.1875 5.6H13C13 5.38782 12.9144 5.18434 12.762 5.03431L12.1875 5.6ZM4.875 8.8C4.875 8.35816 4.51123 8 4.0625 8C3.61377 8 3.25 8.35816 3.25 8.8H4.875ZM3.25 11.2C3.25 11.6418 3.61377 12 4.0625 12C4.51123 12 4.875 11.6418 4.875 11.2H3.25ZM3.65625 5.6C3.20752 5.6 2.84375 5.95818 2.84375 6.4C2.84375 6.84184 3.20752 7.2 3.65625 7.2V5.6ZM4.46875 7.2C4.91749 7.2 5.28125 6.84184 5.28125 6.4C5.28125 5.95818 4.91749 5.6 4.46875 5.6V7.2ZM3.65625 3.2C3.20752 3.2 2.84375 3.55818 2.84375 4C2.84375 4.44182 3.20752 4.8 3.65625 4.8V3.2ZM4.46875 4.8C4.91749 4.8 5.28125 4.44182 5.28125 4C5.28125 3.55818 4.91749 3.2 4.46875 3.2V4.8ZM6.5 0.800001V4.32H8.125V0.800001H6.5ZM8.6125 6.4H12.1875V4.8H8.6125V6.4ZM6.5 4.32C6.5 4.53082 6.49935 4.73705 6.51373 4.91058C6.52892 5.09346 6.56476 5.30925 6.67713 5.52638L8.125 4.8C8.14881 4.84601 8.14036 4.86422 8.13337 4.7803C8.12565 4.68702 8.125 4.55722 8.125 4.32H6.5ZM8.6125 4.8C8.37159 4.8 8.23973 4.79938 8.14499 4.79176C8.05976 4.7849 8.07828 4.77656 8.125 4.8L7.38725 6.22561C7.60776 6.33625 7.82697 6.3715 8.01271 6.38644C8.18894 6.40064 8.39841 6.4 8.6125 6.4V4.8ZM6.67713 5.52638C6.83288 5.82744 7.08151 6.07222 7.38725 6.22561L8.125 4.8L6.67713 5.52638ZM3.25 8.8V11.2H4.875V8.8H3.25ZM3.65625 7.2H4.46875V5.6H3.65625V7.2ZM3.65625 4.8H4.46875V3.2H3.65625V4.8ZM7.3125 1.40195e-06H3.4125V1.6H7.3125V1.40195e-06ZM1.42385e-06 3.36V12.64H1.625V3.36H1.42385e-06ZM3.4125 16H9.5875V14.4H3.4125V16ZM13 12.64V5.6H11.375V12.64H13ZM12.762 5.03431L7.88702 0.234313L6.73798 1.36569L11.613 6.16569L12.762 5.03431ZM9.5875 16C10.0292 16 10.4093 16.0006 10.7209 15.9755C11.0422 15.9497 11.3617 15.8926 11.6691 15.7384L10.9314 14.3128C10.8912 14.333 10.8093 14.3631 10.5887 14.3809C10.3584 14.3994 10.056 14.4 9.5875 14.4V16ZM11.375 12.64C11.375 13.1013 11.3743 13.399 11.3556 13.6258C11.3375 13.843 11.3069 13.9236 11.2864 13.9632L12.7343 14.6896C12.891 14.3869 12.9489 14.0723 12.9751 13.756C13.0006 13.4491 13 13.0749 13 12.64H11.375ZM11.6691 15.7384C12.1278 15.5083 12.5006 15.1412 12.7343 14.6896L11.2864 13.9632C11.2085 14.1138 11.0843 14.2361 10.9314 14.3128L11.6691 15.7384ZM1.42385e-06 12.64C1.42385e-06 13.0749 -0.000632303 13.4491 0.0248396 13.756C0.0510833 14.0723 0.109031 14.3869 0.265673 14.6896L1.71356 13.9632C1.69309 13.9236 1.66247 13.843 1.64444 13.6258C1.62563 13.399 1.625 13.1013 1.625 12.64H1.42385e-06ZM3.4125 14.4C2.94405 14.4 2.64158 14.3994 2.41137 14.3809C2.19064 14.3631 2.1088 14.333 2.06863 14.3128L1.3309 15.7384C1.63833 15.8926 1.95783 15.9497 2.27904 15.9755C2.59077 16.0006 2.97087 16 3.4125 16V14.4ZM0.265673 14.6896C0.499364 15.1412 0.872253 15.5083 1.3309 15.7384L2.06863 14.3128C1.91575 14.2361 1.79146 14.1138 1.71356 13.9632L0.265673 14.6896ZM3.4125 1.40195e-06C2.97087 1.40195e-06 2.59077 -0.000622575 2.27904 0.0244574C1.95783 0.0502974 1.63833 0.107353 1.3309 0.261585L2.06863 1.68719C2.1088 1.66704 2.19064 1.6369 2.41137 1.61915C2.64158 1.60063 2.94405 1.6 3.4125 1.6V1.40195e-06ZM1.625 3.36C1.625 2.89876 1.62563 2.60094 1.64444 2.37427C1.66247 2.15694 1.69309 2.07636 1.71356 2.03681L0.265673 1.31043C0.109031 1.61313 0.0510833 1.9277 0.0248396 2.24398C-0.000632303 2.55091 1.42385e-06 2.92516 1.42385e-06 3.36H1.625ZM1.3309 0.261585C0.872253 0.491681 0.499364 0.858833 0.265673 1.31043L1.71356 2.03681C1.79146 1.88628 1.91575 1.7639 2.06863 1.68719L1.3309 0.261585Z" fill="white"/>
</svg>
