<svg width="103" height="51" viewBox="0 0 103 51" fill="none" xmlns="http://www.w3.org/2000/svg">
<path fill-rule="evenodd" clip-rule="evenodd" d="M97.0438 46.6897C99.0218 47.829 100.899 49.1134 102.629 50.6028C102.662 50.6309 102.698 50.6573 102.733 50.6836C102.841 50.7645 102.951 50.8467 103 50.9879C102.849 51.0306 102.748 50.9525 102.651 50.8772C102.62 50.8529 102.589 50.829 102.557 50.8092C97.8361 47.9279 92.7516 45.985 87.3262 44.863C84.1435 44.2045 80.9322 43.8038 77.6939 43.6238C73.3528 43.3837 69.0131 43.4954 64.6775 43.8017C58.4136 44.2451 52.1962 45.0892 45.9812 45.9531C45.5109 46.019 45.0385 46.078 44.5668 46.1373C44.3465 46.1651 44.1259 46.1925 43.9059 46.221C38.692 46.9662 33.4759 47.6982 28.2155 48.0507C28.139 48.0559 28.0626 48.0507 27.9865 48.0459C27.9524 48.0434 27.9185 48.041 27.8847 48.0396C26.7622 48.1832 25.633 48.1985 24.5051 48.2134C24.3314 48.2159 24.1576 48.2179 23.984 48.2207C21.5513 48.2592 19.1186 48.1791 16.7157 47.7499C12.2707 46.954 8.50159 44.896 5.44162 41.6153C2.02763 37.9589 0.198942 33.5991 0.0152995 28.63C-0.147324 24.235 0.983295 20.1419 3.55982 16.5273C7.49931 11.0006 12.9046 8.10616 19.7381 7.88003C21.6132 7.81855 23.4518 8.07431 25.2573 8.5518C25.5815 8.63739 25.7518 8.57373 25.9631 8.33993C28.7974 5.20724 32.1871 2.85718 36.194 1.46755C43.0409 -0.905567 49.7052 -0.390765 56.1313 2.9406C57.3692 3.58381 58.5398 4.34777 59.5895 5.27531C61.1595 6.45199 62.468 7.88114 63.652 9.4288C64.1464 10.0753 64.5768 10.757 64.9461 11.4847L64.8373 11.369C63.9978 10.477 63.1624 9.58894 62.2526 8.7735C59.093 5.94268 55.4421 4.07556 51.2717 3.20952C47.6883 2.46641 44.1283 2.5685 40.6124 3.5487C36.2793 4.75723 32.6307 7.05788 29.6902 10.4562C28.9091 11.3607 28.2288 12.3354 27.5827 13.3331C27.3725 13.6559 27.1889 13.714 26.8249 13.5922C25.2009 13.0489 23.5558 12.6098 21.8245 12.5198C17.7357 12.3079 14.1027 13.478 10.9774 16.0806C7.94622 18.6063 6.17841 21.8597 5.66286 25.7607C4.60193 33.7955 10.452 41.3121 18.551 42.354C20.0533 42.5479 21.5618 42.611 23.0716 42.6742L23.1786 42.6787C27.159 42.6964 31.1228 42.4133 35.081 42.0369C35.1664 42.0285 35.2534 42.0358 35.3401 42.0431C35.3821 42.0469 35.4237 42.0504 35.465 42.0521C36.6475 41.8547 37.8413 41.7479 39.0347 41.641C39.5806 41.5921 40.1264 41.5432 40.6712 41.4856L40.8729 41.4644C45.9102 40.9326 50.9507 40.4004 56.0086 40.0808C59.9214 39.8348 63.8366 39.6943 67.7595 39.7734C71.3006 39.8459 74.8263 40.086 78.3289 40.5877C84.9257 41.5328 91.2403 43.3462 97.0438 46.6897ZM31.843 42.5462V42.5483C31.8475 42.5469 31.8524 42.5448 31.8574 42.5427C31.861 42.5413 31.8647 42.5396 31.8684 42.5382C31.8651 42.5382 31.8621 42.5385 31.859 42.5389C31.856 42.5392 31.8529 42.5396 31.8496 42.5396C31.8482 42.5403 31.8467 42.542 31.8452 42.5437C31.8445 42.5444 31.8437 42.5451 31.843 42.5462ZM26.583 26.9491C26.5523 27.0093 26.5186 27.0723 26.482 27.1383C26.3558 27.3655 26.2109 27.607 26.0472 27.8616C25.8835 28.1174 25.7109 28.3698 25.5283 28.6201C25.3458 28.8704 25.1699 29.0976 25.0017 29.3017C24.8336 29.5059 24.6787 29.6706 24.5393 29.7957C24.3999 29.9208 24.2871 29.9834 24.203 29.9834C24.1753 29.9834 24.161 29.9472 24.161 29.8725C24.161 29.7331 24.2074 29.5367 24.3015 29.2809C24.3955 29.0262 24.5172 28.731 24.6676 28.3973C24.817 28.0636 24.9885 27.7014 25.181 27.3117C25.3735 26.9221 25.5726 26.5225 25.7795 26.1142C26.0328 25.6224 26.2839 25.1186 26.5328 24.6038C26.7806 24.089 27.0086 23.5973 27.2154 23.1285C27.4223 22.6599 27.5882 22.2307 27.7154 21.841C27.8427 21.4513 27.9057 21.1363 27.9057 20.8949C27.9057 20.6907 27.8681 20.5217 27.7929 20.3866C27.7166 20.2516 27.6225 20.1452 27.5097 20.0661C27.3969 19.9871 27.2741 19.9322 27.1424 19.8993C27.0108 19.8664 26.888 19.8499 26.7751 19.8499C26.5583 19.8499 26.3724 19.8894 26.2165 19.9684C26.0605 20.0475 25.983 20.1375 25.983 20.2396C25.983 20.3043 26.0018 20.3515 26.0395 20.379V20.3932C26.0395 20.5052 25.9996 20.6786 25.92 20.9157C25.8403 21.1528 25.7319 21.436 25.5969 21.7653C25.462 22.0946 25.3071 22.4568 25.1345 22.8509C24.9619 23.246 24.7816 23.651 24.5946 24.0692C24.3889 24.5336 24.1809 25.011 23.9707 25.5028C23.807 25.8865 23.6534 26.2583 23.5094 26.6185C23.4913 26.6431 23.4747 26.6704 23.4596 26.7004V26.6861C22.964 27.6147 22.433 28.4818 21.8677 29.2897C21.3023 30.0965 20.7315 30.8001 20.1562 31.3983C19.5821 31.9965 19.0157 32.4674 18.4592 32.811C17.9028 33.1534 17.3861 33.3257 16.9093 33.3257C16.6184 33.3257 16.3551 33.2632 16.1161 33.1381C15.8772 33.0129 15.6736 32.834 15.5055 32.6024C15.3373 32.3697 15.2079 32.0942 15.1194 31.7737C15.0309 31.4543 14.9866 31.0986 14.9866 30.709C14.9866 30.4126 15.0353 30.0251 15.1337 29.5465C15.2322 29.068 15.3815 28.54 15.5818 27.9593C15.782 27.3787 16.0409 26.7684 16.3584 26.1285C16.6759 25.4885 17.0531 24.8618 17.4923 24.2493C17.7722 23.8596 18.0588 23.5062 18.353 23.1912C18.6473 22.875 18.9272 22.6039 19.1927 22.3767C19.4582 22.1495 19.7027 21.9728 19.9272 21.8476C20.1507 21.7225 20.3377 21.6599 20.487 21.6599C20.6452 21.6599 20.7525 21.7412 20.809 21.9036C20.8654 22.066 20.893 22.2494 20.893 22.4535C20.893 22.6752 20.862 22.9167 20.8023 23.1769C20.7426 23.437 20.6563 23.6928 20.5457 23.943C20.435 24.1933 20.3001 24.4282 20.143 24.6455C19.9859 24.864 19.81 25.0418 19.6153 25.1812C19.5599 25.2284 19.5157 25.2745 19.4836 25.3206C19.4516 25.3678 19.4349 25.4271 19.4349 25.5017C19.4349 25.6038 19.477 25.7059 19.5611 25.808C19.6452 25.91 19.7502 26.0033 19.8764 26.0868C20.0025 26.1702 20.1419 26.2382 20.2967 26.2887C20.4505 26.3403 20.5977 26.3656 20.7382 26.3656C20.8311 26.3656 20.9207 26.3568 21.0048 26.3381C21.0888 26.3195 21.1641 26.2778 21.2293 26.213V26.2272C21.6597 25.8563 21.9684 25.4216 22.1553 24.9255C22.3422 24.4293 22.4363 23.931 22.4363 23.4293C22.4363 22.9376 22.3666 22.5084 22.2261 22.1418C22.0856 21.7752 21.8964 21.4689 21.6575 21.2231C21.4185 20.9772 21.1453 20.7939 20.8366 20.6732C20.528 20.5524 20.2049 20.492 19.8686 20.492C19.6064 20.492 19.3464 20.5217 19.0898 20.5821C18.832 20.6424 18.5886 20.7192 18.3596 20.8114C18.1307 20.9047 17.9227 21.0068 17.7357 21.1177C17.5487 21.2285 17.3894 21.3405 17.2589 21.4514C16.6604 21.9431 16.125 22.4557 15.6526 22.9892C15.1802 23.5226 14.7565 24.0934 14.3826 24.7015C14.0086 25.3096 13.6768 25.955 13.3869 26.6367C13.0971 27.3183 12.8349 28.0494 12.6015 28.8287C12.5262 29.1075 12.4654 29.405 12.4189 29.72C12.3724 30.035 12.3492 30.3424 12.3492 30.6387C12.3492 31.1118 12.4178 31.5805 12.5528 32.0448C12.6889 32.5091 12.899 32.924 13.1845 33.2906C13.4699 33.6572 13.8328 33.9569 14.2719 34.1885C14.7112 34.4201 15.2344 34.5365 15.8428 34.5365C16.573 34.5365 17.3042 34.3597 18.0388 34.0074C18.7723 33.6551 19.4947 33.1512 20.206 32.497C20.9174 31.8428 21.6099 31.0536 22.2825 30.1305C22.3966 29.9739 22.5097 29.8142 22.6219 29.6514C22.643 30.0246 22.7422 30.3242 22.9197 30.5487C23.1211 30.8044 23.4032 30.9318 23.7683 30.9318C24.0017 30.9318 24.2451 30.8505 24.4973 30.6881C24.7506 30.5256 25.0006 30.3171 25.2484 30.0613C25.4962 29.8056 25.7374 29.5224 25.9708 29.2117C26.0396 29.1203 26.1067 29.0289 26.1722 28.9378C26.1733 29.2026 26.2132 29.4567 26.2917 29.6991C26.3714 29.945 26.4864 30.1612 26.6357 30.3467C26.7851 30.5322 26.9721 30.6782 27.1966 30.7847C27.4212 30.8911 27.6734 30.9449 27.9544 30.9449C28.3195 30.9449 28.6558 30.8494 28.9645 30.6596C29.2731 30.4696 29.5552 30.2304 29.813 29.9428C30.0696 29.6552 30.2964 29.349 30.4933 29.0241C30.6903 28.6991 30.854 28.3984 30.9845 28.1196C31.2556 28.1097 31.5178 28.0779 31.77 28.0219C31.9017 27.9927 32.0283 27.958 32.1498 27.9177C32.049 28.1944 31.9681 28.4651 31.9061 28.7299C31.8408 29.0087 31.8076 29.2645 31.8076 29.4961C31.8076 29.9417 31.9083 30.293 32.1096 30.5476C32.311 30.8034 32.5931 30.9307 32.9581 30.9307C33.2845 30.9307 33.6308 30.7803 33.9958 30.4785C34.3598 30.1766 34.7061 29.8166 35.0335 29.3995C35.0335 29.4094 35.0314 29.4138 35.0268 29.4138C35.0223 29.4138 35.0202 29.4193 35.0202 29.428C35.0303 29.428 35.0345 29.4511 35.0345 29.4972C35.0345 29.9429 35.1352 30.2941 35.3366 30.5487C35.537 30.8045 35.8202 30.9318 36.1853 30.9318C36.4185 30.9318 36.6619 30.8506 36.9143 30.6881C37.1665 30.5257 37.4165 30.3171 37.6644 30.0614C37.9119 29.8056 38.1532 29.5224 38.3868 29.2118C38.4214 29.1658 38.4553 29.1198 38.4892 29.0739C38.5022 29.2512 38.5354 29.4308 38.5878 29.6135C38.6578 29.855 38.7693 30.0734 38.9242 30.2677C39.0791 30.462 39.2826 30.6222 39.5351 30.7474C39.7872 30.8725 40.0914 30.9351 40.4467 30.9351C40.8414 30.9351 41.1901 30.8264 41.4953 30.608C41.7995 30.3895 42.0884 30.1041 42.3604 29.7518C42.3982 30.1239 42.5153 30.4137 42.7122 30.6222C42.909 30.8308 43.1713 30.9351 43.4989 30.9351C43.7234 30.9351 43.958 30.8593 44.2014 30.7056C44.4458 30.5531 44.6892 30.3533 44.9326 30.1074C45.1473 29.8914 45.3553 29.6516 45.5588 29.3888C45.5574 29.4255 45.5564 29.4616 45.5564 29.4971C45.5564 29.9241 45.6529 30.2699 45.8441 30.5344C46.0354 30.799 46.3099 30.9307 46.6648 30.9307C46.8708 30.9307 47.0809 30.8747 47.2966 30.7638C47.5113 30.6519 47.726 30.5037 47.9414 30.3182C47.7921 30.6431 47.6596 30.9427 47.5421 31.216C47.425 31.4905 47.3299 31.7331 47.2547 31.9471C47.1141 32.058 46.9438 32.1677 46.7424 32.2742C46.541 32.3818 46.3421 32.4805 46.1462 32.5739C45.949 32.666 45.7522 32.7637 45.5564 32.8658C45.3595 32.9679 45.1836 33.0766 45.0298 33.1929C44.8763 33.3093 44.7521 33.4344 44.6581 33.5694C44.564 33.7033 44.5175 33.8548 44.5175 34.0216H44.5199V34.1183C44.5574 34.3037 44.6304 34.4684 44.7378 34.6122C44.8451 34.756 44.9766 34.8733 45.1305 34.9666C45.2854 35.0589 45.4557 35.1279 45.6427 35.1755C45.8298 35.2212 46.0221 35.2445 46.2179 35.2445C46.4428 35.2445 46.6673 35.2171 46.8917 35.1609C47.1162 35.1061 47.3243 35.0218 47.5155 34.9107C47.7072 34.7997 47.8806 34.6627 48.0344 34.5002C48.1883 34.3378 48.3079 34.149 48.3918 33.936C48.4383 33.8252 48.5201 33.6386 48.6376 33.3795C48.7537 33.1194 48.8729 32.8549 48.9946 32.5859L49.331 31.834C49.7237 31.6398 50.1286 31.3522 50.5447 30.9713C50.9608 30.5915 51.3601 30.1689 51.7441 29.7046C52.1266 29.2403 52.485 28.753 52.8168 28.2425C53.149 27.7321 53.4277 27.2491 53.6522 26.7947C53.67 26.7212 53.6798 26.6696 53.6798 26.6421C53.6798 26.5401 53.6424 26.4589 53.5683 26.3985C53.4927 26.3392 53.4043 26.3085 53.3015 26.3085C53.2263 26.3085 53.1567 26.3293 53.0913 26.371C53.0249 26.4127 52.9742 26.4852 52.9364 26.5873C52.8525 26.8002 52.7074 27.0812 52.5018 27.4292C52.2958 27.7771 52.0549 28.1394 51.7794 28.5147C51.5038 28.8912 51.2063 29.2622 50.8888 29.6289C50.5713 29.9955 50.2527 30.3039 49.9352 30.5542C49.944 30.5081 49.9583 30.4664 49.9772 30.4291C49.9961 30.3917 50.0213 30.3456 50.0545 30.2896C50.0866 30.2337 50.1286 30.1601 50.1807 30.0668C50.2318 29.9746 50.2947 29.8495 50.3699 29.6914C50.5479 29.3106 50.7461 28.8912 50.9661 28.4313C51.1863 27.9725 51.392 27.5225 51.5836 27.0812C51.7748 26.6411 51.9343 26.2305 52.0602 25.8497C52.1864 25.4699 52.2493 25.168 52.2493 24.9452C52.2493 24.7498 52.2095 24.5895 52.1301 24.4644C52.0504 24.3393 51.9542 24.2372 51.8423 24.1582C51.7308 24.0791 51.6112 24.0242 51.485 23.9913C51.3591 23.9595 51.2482 23.943 51.1552 23.943C50.9395 23.943 50.7482 23.9902 50.58 24.0824C50.4118 24.1757 50.3279 24.2635 50.3279 24.347C50.3279 24.3843 50.3367 24.4205 50.3555 24.4578V24.4436C50.3643 24.4622 50.372 24.4765 50.3765 24.4853C50.3811 24.4951 50.3832 24.5138 50.3832 24.5413C50.3832 24.7366 50.2957 25.0539 50.1234 25.4951C49.9506 25.9364 49.7426 26.4259 49.4992 26.9638C49.3412 27.2612 49.1464 27.5861 48.9174 27.9385C48.6883 28.2908 48.4562 28.6179 48.2226 28.9198C47.9879 29.2216 47.7711 29.4741 47.5697 29.6782C47.3687 29.8824 47.2169 29.9845 47.1141 29.9845C47.0477 29.9845 47.0155 29.9571 47.0155 29.9011C47.0155 29.7617 47.0952 29.5388 47.2547 29.2326C47.4138 28.9264 47.5911 28.5971 47.7879 28.2447C47.9285 27.9934 48.0733 27.731 48.2226 27.4577C48.3719 27.1833 48.5103 26.9078 48.6362 26.629C48.7625 26.3513 48.8653 26.0845 48.945 25.8288C49.0247 25.573 49.0646 25.3436 49.0646 25.1395C49.0646 24.9166 49.0279 24.7311 48.9527 24.583C48.8775 24.4348 48.7834 24.3184 48.6719 24.235C48.559 24.1516 48.4373 24.0912 48.3068 24.0539C48.1761 24.0166 48.0502 23.9979 47.9285 23.9979C47.7128 23.9979 47.5288 24.0374 47.3739 24.1165C47.2204 24.1955 47.1428 24.2855 47.1428 24.3876C47.1428 24.4337 47.1484 24.4633 47.1571 24.4776C47.1662 24.4908 47.1806 24.5072 47.1994 24.5259C47.218 24.5632 47.2271 24.5907 47.2271 24.6093C47.2271 24.7399 47.1662 24.9485 47.0445 25.2361C46.9229 25.5236 46.7865 25.8354 46.6372 26.1691C46.5155 26.4292 46.3917 26.7058 46.2655 26.9978C46.2319 27.0754 46.199 27.1531 46.1669 27.2309C46.0522 27.4314 45.9242 27.6427 45.7822 27.8639C45.6183 28.1196 45.4448 28.372 45.2623 28.6223C45.0798 28.8726 44.9039 29.0998 44.7357 29.304C44.5675 29.5081 44.4126 29.6728 44.272 29.7979C44.1315 29.923 44.0189 29.9856 43.9346 29.9856C43.907 29.9856 43.8926 29.9494 43.8926 29.8747C43.8926 29.7353 43.9391 29.5388 44.0332 29.2831C44.1273 29.0285 44.2479 28.7332 44.3983 28.3995C44.5486 28.0658 44.72 27.7036 44.9116 27.3139C45.1039 26.9242 45.3032 26.5247 45.5088 26.1164C45.7623 25.6246 46.0134 25.1208 46.2613 24.606C46.5089 24.0912 46.7368 23.5995 46.9428 23.1308C47.1484 22.6621 47.3155 22.2329 47.4414 21.8432C47.5687 21.4536 47.632 21.1385 47.632 20.897C47.632 20.6929 47.5942 20.5238 47.519 20.3888C47.4428 20.2538 47.3488 20.1473 47.2358 20.0683C47.1229 19.9893 47.0001 19.9344 46.8687 19.9015C46.7368 19.8685 46.6141 19.8521 46.5012 19.8521C46.2844 19.8521 46.0987 19.8916 45.9424 19.9706C45.7864 20.0497 45.7092 20.1397 45.7092 20.2417C45.7092 20.3065 45.728 20.3537 45.7655 20.3811V20.3954C45.7655 20.4975 45.727 20.6687 45.6473 20.9102C45.5675 21.1517 45.4581 21.4393 45.3186 21.773C45.1791 22.1066 45.021 22.4777 44.8441 22.886C44.6672 23.2943 44.4811 23.7169 44.2853 24.1527L43.8528 25.1406H43.8507V25.0615C43.8507 24.8387 43.8017 24.6576 43.7035 24.5182C43.6049 24.3788 43.4856 24.2679 43.3451 24.1845C43.2045 24.1011 43.0573 24.0451 42.9024 24.0177C42.7475 23.9902 42.615 23.976 42.502 23.976C41.8272 23.976 41.1733 24.2218 40.5418 24.7136C39.9089 25.2053 39.3634 25.9945 38.9043 27.0801C38.8865 27.1247 38.8686 27.1697 38.8515 27.2153C38.7277 27.4361 38.5899 27.6655 38.4375 27.9034C38.2738 28.1591 38.1011 28.4094 37.9186 28.6553C37.7361 28.9012 37.5581 29.124 37.3853 29.3238C37.2119 29.5235 37.056 29.6838 36.9154 29.8045C36.7748 29.9253 36.6675 29.9856 36.5923 29.9856C36.5269 29.9856 36.4937 29.9582 36.4937 29.9022C36.4937 29.7628 36.5734 29.54 36.7329 29.2337C36.892 28.9275 37.0692 28.5982 37.2661 28.2459C37.4063 27.9945 37.5514 27.7322 37.7007 27.4588C37.85 27.1844 37.9885 26.9089 38.1144 26.6301C38.2406 26.3524 38.3434 26.0857 38.4232 25.8299C38.5029 25.5742 38.5427 25.3448 38.5427 25.1406C38.5427 24.9178 38.505 24.7323 38.4298 24.5841C38.3546 24.4359 38.2606 24.3196 38.1487 24.2362C38.0361 24.1527 37.9144 24.0923 37.7836 24.0551C37.6532 24.0177 37.527 23.9991 37.4053 23.9991C37.1895 23.9991 37.006 24.0386 36.8511 24.1176C36.6972 24.1966 36.6199 24.2866 36.6199 24.3887C36.6199 24.4348 36.6255 24.4644 36.6343 24.4787C36.643 24.4919 36.6577 24.5084 36.6762 24.527C36.694 24.5644 36.7038 24.5918 36.7038 24.6104C36.7038 24.7498 36.643 24.9584 36.5213 25.2372C36.3996 25.5149 36.2605 25.831 36.101 26.1834C36.0535 26.3041 35.9947 26.4359 35.9251 26.5796C35.8555 26.7234 35.7923 26.8551 35.736 26.9759C35.5769 27.2821 35.3831 27.6092 35.1541 27.9572C34.9251 28.3051 34.6928 28.63 34.4594 28.9319C34.2259 29.2337 34.0113 29.484 33.8144 29.6838C33.6175 29.8836 33.4681 29.9834 33.3653 29.9834C33.3 29.9834 33.2668 29.956 33.2668 29.9C33.2668 29.7606 33.3464 29.5378 33.5058 29.2316C33.6651 28.9253 33.8421 28.596 34.039 28.2437C34.1795 27.9923 34.3244 27.73 34.4737 27.4567C34.6231 27.1823 34.7614 26.9067 34.8875 26.6279C35.0135 26.3502 35.1164 26.0835 35.1961 25.8277C35.2758 25.572 35.3157 25.3426 35.3157 25.1384C35.3157 24.9156 35.2789 24.7301 35.2038 24.5819C35.1286 24.4337 35.0356 24.3174 34.9229 24.234C34.81 24.1505 34.6884 24.0902 34.5578 24.0528C34.4273 24.0155 34.3012 23.9969 34.1795 23.9969C33.9637 23.9969 33.779 24.0364 33.6252 24.1154C33.4714 24.1945 33.394 24.2844 33.394 24.3865C33.394 24.4326 33.3984 24.4623 33.4084 24.4765C33.4173 24.4897 33.4316 24.5062 33.4504 24.5248C33.4681 24.5621 33.4781 24.5896 33.4781 24.6082C33.4781 24.7389 33.4173 24.9474 33.2956 25.235C33.1738 25.5226 33.0378 25.8343 32.8885 26.168C32.7916 26.375 32.6934 26.5924 32.5938 26.8197C32.5425 26.8916 32.4711 26.9657 32.3795 27.0406C32.2711 27.1295 32.1284 27.2096 31.9514 27.2843C31.7733 27.3578 31.5487 27.4094 31.2777 27.4368C31.3054 27.3249 31.3286 27.2119 31.3474 27.0955C31.3651 26.9791 31.3751 26.8792 31.3751 26.7958C31.3751 26.6103 31.3452 26.4665 31.2843 26.3645C31.2224 26.2635 31.1505 26.191 31.0664 26.1493C30.9823 26.1076 30.8949 26.0845 30.8064 26.0802C30.7168 26.0758 30.6449 26.0736 30.5885 26.0736C30.4579 26.0736 30.3407 26.1032 30.2378 26.1636C30.1349 26.225 30.0464 26.303 29.9712 26.4007C29.896 26.4984 29.8406 26.607 29.803 26.7278C29.7654 26.8485 29.7466 26.9693 29.7466 27.09C29.7466 27.2755 29.7798 27.4401 29.8451 27.5839C29.9103 27.7277 30.0276 27.8463 30.1958 27.9385C30.084 28.1514 29.9524 28.3786 29.803 28.6201C29.6537 28.8616 29.5021 29.0844 29.3472 29.2886C29.1924 29.4927 29.043 29.6629 28.8981 29.7968C28.7531 29.9318 28.6237 29.9988 28.512 29.9988C28.3527 29.9988 28.2365 29.9197 28.1613 29.7617C28.0861 29.6047 28.0485 29.4192 28.0485 29.2052C28.0485 28.9538 28.0883 28.6706 28.1679 28.3556C28.2465 28.0405 28.3516 27.7179 28.4832 27.3885C28.6138 27.0593 28.7642 26.7387 28.9324 26.4281C29.1005 26.1175 29.2731 25.8387 29.4512 25.5928C29.6282 25.3469 29.8019 25.1493 29.9701 25.0012C30.1382 24.853 30.292 24.7784 30.4325 24.7784C30.4413 24.7784 30.4646 24.7871 30.5022 24.8058C30.3905 24.898 30.334 25.0253 30.334 25.19C30.334 25.3447 30.3927 25.4688 30.5099 25.5599C30.6261 25.651 30.76 25.6971 30.9093 25.6971C31.0586 25.6971 31.1914 25.6433 31.3087 25.5379C31.4259 25.4325 31.4846 25.2734 31.4846 25.0615H31.489V25.0473C31.4702 24.9276 31.437 24.8014 31.3905 24.6675C31.343 24.5336 31.2711 24.4161 31.1726 24.3152C31.0753 24.213 30.9491 24.1285 30.7943 24.0594C30.6405 23.9902 30.4458 23.9562 30.2123 23.9562C29.6327 23.9562 29.095 24.1143 28.5994 24.4293C28.1038 24.7454 27.6756 25.1461 27.3161 25.6334C27.1179 25.9013 26.944 26.1837 26.7942 26.481C26.7806 26.5035 26.7683 26.5283 26.7574 26.5554C26.6949 26.6839 26.6368 26.8152 26.583 26.9491ZM42.8681 24.8069C42.7566 24.9002 42.6999 25.0297 42.6999 25.1966C42.6999 25.3535 42.7587 25.4797 42.8737 25.573C42.9909 25.6663 43.1248 25.7124 43.2741 25.7124C43.4248 25.7124 43.5507 25.6663 43.6538 25.573C43.5507 25.7959 43.4566 26.0143 43.3727 26.2272C43.2874 26.4413 43.2034 26.6443 43.1192 26.8397V26.8255C43.073 26.9089 43.0265 26.9989 42.979 27.0966C42.9325 27.1943 42.886 27.2898 42.8384 27.382C42.679 27.6794 42.5153 27.9835 42.3461 28.2941C42.1768 28.6047 42.0086 28.8901 41.8394 29.1503C41.6712 29.4104 41.5041 29.6212 41.3404 29.7836C41.1768 29.9461 41.024 30.0273 40.8834 30.0273C40.7243 30.0273 40.6093 29.9373 40.5393 29.7562C40.4698 29.5751 40.4344 29.3643 40.4344 29.1228C40.4344 28.8539 40.4719 28.5609 40.5474 28.2458C40.6226 27.9308 40.7254 27.6377 40.8568 27.3688C41.2408 26.5521 41.6093 25.921 41.9611 25.4754C42.3128 25.0297 42.6059 24.8069 42.8405 24.8069H42.8681ZM45.7812 34.453C45.9679 34.453 46.1483 34.3465 46.3207 34.1325C46.4945 33.9185 46.6928 33.52 46.9173 32.935L46.4823 33.1578C46.3421 33.2226 46.2046 33.2873 46.0686 33.3532C45.9337 33.418 45.8088 33.4849 45.6969 33.5551C45.5854 33.6254 45.4934 33.6968 45.4238 33.7714C45.3539 33.846 45.3186 33.924 45.3186 34.0085C45.3186 34.1193 45.363 34.2214 45.4515 34.3147C45.5399 34.4069 45.6494 34.453 45.7812 34.453ZM77.1442 20.4492C76.905 20.4953 76.7292 20.5655 76.6176 20.6578H76.6141V20.6698C76.1085 21.1056 75.5476 21.616 74.9305 22.201C74.313 22.785 73.6836 23.4074 73.043 24.0659C72.4027 24.7245 71.7765 25.4018 71.1635 26.0977C70.5506 26.7936 69.9963 27.472 69.5009 28.1305C69.389 27.8616 69.2806 27.6344 69.1778 27.4489C69.075 27.2634 68.9533 27.0362 68.8127 26.7673V26.7815L68.4753 26.1274C68.3914 25.9605 68.3039 25.7959 68.2151 25.6334C68.1267 25.4709 68.0392 25.3063 67.9553 25.1394C68.2452 24.3503 68.4487 23.6796 68.5658 23.1275C68.6833 22.5764 68.7417 22.1099 68.7417 21.7291C68.7417 21.2 68.6414 20.7796 68.44 20.469C68.2386 20.1583 67.9697 20.0025 67.6322 20.0025C67.5571 19.9838 67.4773 19.975 67.3934 19.975C67.0846 19.975 66.7892 20.0519 66.5084 20.2044C66.2273 20.3581 65.9808 20.5666 65.7703 20.8312C65.5601 21.0957 65.3909 21.414 65.265 21.785C65.1388 22.1572 65.0758 22.5556 65.0758 22.9826C65.0758 23.5303 65.1996 24.1011 65.4475 24.6949C65.6961 25.2887 66.0217 25.9616 66.4241 26.7135C66.3315 26.8902 66.1951 27.1482 66.0171 27.4862C65.8402 27.8254 65.6223 28.1986 65.3643 28.6069C65.1066 29.0153 64.8192 29.4302 64.5003 29.8528C64.1817 30.2754 63.8422 30.6573 63.4817 31.0009C63.1208 31.3445 62.7435 31.6277 62.3509 31.8505C61.9582 32.0733 61.5599 32.1842 61.1571 32.1842C60.8851 32.1842 60.6462 32.1282 60.4403 32.0173C60.2347 31.9054 60.0609 31.7572 59.9203 31.5717C59.7798 31.3862 59.6738 31.1678 59.6039 30.9175C59.5343 30.6672 59.499 30.4071 59.499 30.1381C59.499 29.7946 59.5619 29.4488 59.6881 29.1009C59.8154 28.7529 60.0046 28.4313 60.2567 28.1338C60.5102 27.8364 60.8298 27.5817 61.2179 27.3677C61.6054 27.1547 62.061 27.0153 62.5855 26.9506C62.6883 26.9319 62.7726 26.8902 62.8376 26.8255C62.903 26.7607 62.9449 26.6773 62.9638 26.5752C62.9638 26.4358 62.9009 26.3293 62.7747 26.2547C62.6484 26.1811 62.4981 26.1252 62.3253 26.0878C62.1519 26.0505 61.9746 26.0297 61.7921 26.0252C61.6096 26.0209 61.4582 26.0187 61.3365 26.0187C60.6903 26.0187 60.0931 26.1229 59.542 26.3315C58.9913 26.5411 58.5164 26.8309 58.116 27.2019C57.7167 27.5729 57.4024 28.0164 57.1747 28.5312C56.9468 29.046 56.8328 29.6146 56.8328 30.2358C56.8415 30.6815 56.9233 31.0964 57.0782 31.4817C57.2321 31.8669 57.4524 32.1984 57.7377 32.4772C58.022 32.755 58.3615 32.9756 58.7545 33.138C59.1472 33.3005 59.5864 33.3817 60.0731 33.3817C61.2987 33.3817 62.4813 32.913 63.6233 31.9756C64.765 31.0382 65.8591 29.586 66.9067 27.6191C67.1312 28.0548 67.3501 28.4917 67.5658 28.9275C67.7805 29.3643 67.9543 29.7902 68.0847 30.2084C67.692 30.8582 67.4088 31.4422 67.2364 31.9625C67.0626 32.4816 66.9763 32.9185 66.9763 33.2709C66.9763 33.6605 67.0836 33.9547 67.2993 34.1544C67.514 34.3542 67.8183 34.4541 68.2109 34.4541C68.5096 34.4541 68.7928 34.3751 69.0592 34.217C69.326 34.059 69.5596 33.8416 69.7607 33.5628C69.9621 33.284 70.1205 32.9591 70.2376 32.5881C70.3547 32.216 70.4135 31.8176 70.4135 31.3906C70.4135 31.0657 70.3624 30.6936 70.2596 30.2765C70.1568 29.8593 70.0264 29.4368 69.867 29.0098C70.1379 28.6388 70.4422 28.2458 70.7785 27.8331C71.1149 27.4204 71.4656 27 71.8307 26.573C72.1957 26.1471 72.5741 25.7223 72.9668 25.2997C73.3594 24.8782 73.7479 24.4666 74.1318 24.0682C73.9437 24.5138 73.7546 25.0363 73.5629 25.6345C73.3706 26.2327 73.2003 26.8661 73.051 27.5345C72.9014 28.203 72.801 29.0811 72.801 29.7309C72.801 30.4631 72.8619 31.159 72.9835 31.8186C73.1052 32.4772 73.3087 33.0557 73.5941 33.5518C73.8794 34.048 74.2535 34.4431 74.7168 34.7352C75.1805 35.027 75.7536 35.173 76.4361 35.173C76.5302 35.173 76.6309 35.1709 76.7383 35.1664C76.8453 35.1623 76.946 35.1456 77.04 35.1182C77.133 35.0898 77.2103 35.0436 77.2711 34.9787C77.3309 34.9142 77.3621 34.8164 77.3621 34.6868C77.3621 34.6034 77.332 34.5288 77.2711 34.464C77.2103 34.3993 77.1232 34.3575 77.0114 34.3389C76.7127 34.3015 76.4505 34.172 76.226 33.9492C76.0012 33.7264 75.8144 33.4344 75.6651 33.0722C75.5155 32.711 75.405 32.2863 75.3354 31.7989C75.2655 31.3116 75.2301 30.7891 75.2301 30.2325C75.2301 29.6201 75.2934 28.821 75.4525 28.1338C75.6109 27.4467 75.8053 26.7695 76.0344 26.101C76.2645 25.4325 76.5278 24.7992 76.8278 24.201C77.1264 23.6027 77.4561 23.055 77.8166 22.5589C78.1761 22.0616 78.5677 21.6423 78.9884 21.2988C79.1475 21.1692 79.2272 21.0397 79.2272 20.9091C79.2272 20.7236 79.0912 20.5886 78.8202 20.5052C78.5492 20.4218 78.245 20.3801 77.9086 20.3801C77.6376 20.3801 77.383 20.4031 77.1442 20.4492ZM81.7805 25.0615C81.7805 25.2734 81.7217 25.4325 81.6046 25.5379C81.4874 25.6433 81.3546 25.6971 81.2053 25.6971C81.0559 25.6971 80.922 25.651 80.8059 25.5599C80.6884 25.4688 80.6301 25.3447 80.6301 25.19C80.6301 25.0253 80.6863 24.898 80.7982 24.8058C80.7605 24.7871 80.7374 24.7784 80.7283 24.7784C80.5881 24.7784 80.4342 24.853 80.2661 25.0012C80.0979 25.1493 79.9241 25.3469 79.7471 25.5928C79.5692 25.8387 79.3964 26.1175 79.2282 26.4281C79.0601 26.7387 78.9107 27.0593 78.7793 27.3885C78.6474 27.7179 78.5425 28.0405 78.4639 28.3556C78.3841 28.6706 78.3443 28.9538 78.3443 29.2052C78.3443 29.4192 78.382 29.6047 78.4562 29.7617C78.5313 29.9197 78.6474 29.9988 78.8069 29.9988C78.9184 29.9988 79.0482 29.9318 79.1929 29.7968C79.3377 29.6629 79.4873 29.4927 79.6422 29.2886C79.7957 29.0844 79.9486 28.8616 80.0979 28.6201C80.2472 28.3786 80.379 28.1514 80.4905 27.9385C80.3223 27.8463 80.2052 27.7277 80.1398 27.5839C80.0748 27.4401 80.0416 27.2755 80.0416 27.09C80.0416 26.9693 80.0601 26.8485 80.0979 26.7278C80.1356 26.607 80.1909 26.4984 80.2661 26.4007C80.3402 26.303 80.4297 26.225 80.5325 26.1636C80.6356 26.1032 80.7517 26.0736 80.8832 26.0736C80.9399 26.0736 81.0115 26.0758 81.1014 26.0802C81.1899 26.0845 81.2759 26.1076 81.3612 26.1493C81.4455 26.191 81.5172 26.2635 81.579 26.3645C81.6399 26.4665 81.67 26.6103 81.67 26.7958C81.67 26.8792 81.6598 26.9791 81.6423 27.0955C81.6235 27.2119 81.6 27.3249 81.5724 27.4368C81.8437 27.4094 82.0682 27.3578 82.2462 27.2843C82.4231 27.2096 82.5658 27.1295 82.6746 27.0406C82.7809 26.9534 82.8602 26.8674 82.9123 26.7846C83.0599 26.4249 83.2193 26.0494 83.3914 25.6565C83.4977 25.4128 83.6043 25.1691 83.711 24.9254L83.7124 24.9223L83.7134 24.9192C83.8211 24.6732 83.9288 24.4272 84.0362 24.1812L84.6537 22.7894C84.3561 22.7894 84.3037 22.7922 84.1932 22.798H84.1928V22.7981H84.1925L84.1921 22.7981C84.1327 22.8012 84.0561 22.8053 83.9155 22.8102C83.5141 22.8245 83.1644 22.8575 82.8704 22.9079C82.8081 22.9188 82.7522 22.9278 82.699 22.9364L82.698 22.9366L82.6973 22.9367L82.6969 22.9368C82.499 22.9687 82.3424 22.9939 82.0815 23.0803C81.8868 23.145 81.3381 23.3788 81.328 23.5556L81.8847 23.5676C81.8756 23.6983 81.8382 23.797 81.7728 23.8673C81.7074 23.9364 81.628 23.9716 81.5339 23.9716C81.422 23.9716 81.307 23.9024 81.1899 23.763C81.0724 23.6236 81.014 23.4107 81.014 23.1231C81.014 22.7982 81.0836 22.5292 81.2241 22.3152C81.3647 22.1023 81.5581 21.9343 81.806 21.8136C82.0539 21.6928 82.348 21.6094 82.6899 21.5633C83.0316 21.5172 83.398 21.4942 83.7907 21.4942C83.9865 21.4942 84.1484 21.5069 84.3264 21.521C84.4197 21.5283 84.5173 21.5361 84.6271 21.5424C84.7984 21.5525 84.8393 21.5578 84.8949 21.565C84.9425 21.5712 85.0009 21.5787 85.1603 21.5919C85.2631 21.3317 85.3495 21.0903 85.4201 20.8674C85.4897 20.6446 85.5254 20.4865 85.5254 20.3943C85.5254 20.3757 85.5208 20.3625 85.5111 20.3526C85.4831 20.334 85.4687 20.2966 85.4687 20.2417C85.4687 20.1397 85.5464 20.0497 85.7023 19.9706C85.8572 19.8916 86.0443 19.8521 86.2611 19.8521C86.3737 19.8521 86.4968 19.8685 86.6282 19.9015C86.7601 19.9344 86.8828 19.9893 86.9954 20.0683C87.1083 20.1473 87.2024 20.2516 87.2786 20.3811C87.3538 20.5107 87.3916 20.6786 87.3916 20.8828C87.3916 21.1242 87.344 21.4119 87.2499 21.7455H87.6272C87.7115 21.7455 87.7951 21.745 87.8783 21.7439C87.9014 21.7028 87.9245 21.6631 87.9468 21.6248C87.9979 21.537 88.0245 21.4788 88.0245 21.4503C88.0245 21.3021 88.1416 21.2275 88.3752 21.2275C88.478 21.2275 88.6042 21.2505 88.7535 21.2966C88.9028 21.3427 89.0455 21.4108 89.1815 21.4986C89.25 21.5431 89.3133 21.5944 89.3714 21.6524C89.4151 21.6467 89.4574 21.6408 89.499 21.6347C89.7501 21.5973 89.9525 21.5513 90.1064 21.4953C90.2602 21.4393 90.3375 21.3701 90.3375 21.2867C90.3375 21.0639 90.4361 20.953 90.6319 20.953C90.7347 20.953 90.8508 21.0112 90.9826 21.1265C91.1131 21.2428 91.1795 21.3745 91.1795 21.5227C91.1795 21.6808 91.0599 21.8334 90.8222 21.9815C90.5833 22.1297 90.2658 22.2603 89.8686 22.3712C89.799 22.3906 89.7273 22.4095 89.6539 22.4278C89.6417 22.4757 89.62 22.5304 89.5885 22.5918C89.5368 22.6939 89.4836 22.796 89.4273 22.8981C89.3619 23.0002 89.3032 23.1067 89.2525 23.2186C89.2004 23.3306 89.1738 23.4096 89.1738 23.4557C89.1738 23.5303 89.1385 23.5874 89.0686 23.6302C88.999 23.6719 88.907 23.6928 88.7955 23.6928C88.6836 23.6928 88.5521 23.6697 88.4028 23.6236C88.2535 23.5775 88.1108 23.5106 87.9745 23.4217C87.8384 23.3339 87.7223 23.2197 87.6237 23.0803C87.5566 22.9851 87.5126 22.877 87.4916 22.7557C87.2793 22.771 87.0639 22.7822 86.845 22.7894C86.6394 23.2899 86.3936 23.8245 86.1083 24.3898C85.823 24.9562 85.5453 25.5171 85.2729 26.0736C85.0572 26.4907 84.8547 26.9001 84.6624 27.2985C84.4711 27.6981 84.2974 28.0647 84.1435 28.3984C83.9897 28.7321 83.868 29.0273 83.7785 29.282C83.6889 29.5378 83.6445 29.7342 83.6445 29.8736C83.6445 29.9483 83.6589 29.9845 83.6865 29.9845C83.7708 29.9845 83.8823 29.9219 84.0229 29.7968C84.1634 29.6716 84.3173 29.507 84.4855 29.3029C84.6537 29.0987 84.8296 28.8715 85.0121 28.6212C85.1946 28.3709 85.367 28.1185 85.5306 27.8627C85.6946 27.6081 85.8394 27.3666 85.9656 27.1394C85.9904 27.0948 86.0135 27.0516 86.0356 27.0097L86.0408 26.9978C86.167 26.7058 86.2908 26.4292 86.4125 26.1691C86.5618 25.8354 86.6978 25.5237 86.8195 25.2361C86.9412 24.9485 87.002 24.7399 87.002 24.6093C87.002 24.5907 86.9933 24.5632 86.9744 24.5259C86.9559 24.5073 86.9412 24.4908 86.9324 24.4776C86.9237 24.4633 86.9181 24.4337 86.9181 24.3876C86.9181 24.2855 86.9954 24.1955 87.1492 24.1165C87.3041 24.0375 87.4877 23.9979 87.7035 23.9979C87.8251 23.9979 87.9514 24.0166 88.0818 24.0539C88.2126 24.0912 88.3343 24.1516 88.4469 24.235C88.5588 24.3184 88.6528 24.4348 88.728 24.583C88.8032 24.7312 88.8395 24.9167 88.8395 25.1395C88.8395 25.3437 88.8 25.573 88.7203 25.8288C88.6406 26.0846 88.5378 26.3513 88.4115 26.629C88.2853 26.9078 88.1472 27.1833 87.9979 27.4577C87.8486 27.731 87.7035 27.9934 87.5629 28.2448C87.366 28.5971 87.1891 28.9264 87.03 29.2326C86.8706 29.5389 86.7908 29.7617 86.7908 29.9011C86.7908 29.9571 86.823 29.9845 86.8894 29.9845C86.9646 29.9845 87.072 29.9242 87.2125 29.8034C87.3528 29.6827 87.5087 29.5224 87.6825 29.3226C87.8552 29.1229 88.0332 28.9001 88.2157 28.6542C88.3983 28.4083 88.571 28.158 88.7346 27.9023C88.8983 27.6465 89.0455 27.4007 89.1759 27.1647C89.2252 27.0754 89.2696 26.9913 89.3098 26.9122C89.4969 26.4539 89.7361 26.0279 90.0277 25.6334C90.3875 25.1461 90.8155 24.7454 91.311 24.4293C91.8068 24.1143 92.3442 23.9562 92.924 23.9562C93.1576 23.9562 93.3523 23.9902 93.5058 24.0594C93.6607 24.1285 93.787 24.213 93.8842 24.3152C93.9828 24.4161 94.0548 24.5336 94.1024 24.6675C94.1489 24.8014 94.1821 24.9276 94.2006 25.0473V25.0615H94.1975C94.1975 25.2734 94.1387 25.4325 94.0216 25.5379C93.9041 25.6433 93.7716 25.6971 93.6223 25.6971C93.4726 25.6971 93.3391 25.651 93.223 25.5599C93.1055 25.4688 93.0467 25.3447 93.0467 25.19C93.0467 25.0253 93.1034 24.898 93.2149 24.8058C93.1775 24.7871 93.1541 24.7784 93.1453 24.7784C93.0048 24.7784 92.8509 24.853 92.6831 25.0012C92.5149 25.1493 92.3411 25.3469 92.1642 25.5928C91.9858 25.8387 91.8134 26.1175 91.6453 26.4281C91.4771 26.7387 91.3278 27.0593 91.1959 27.3885C91.0645 27.7179 90.9592 28.0405 90.8809 28.3556C90.8012 28.6706 90.7613 28.9538 90.7613 29.2052C90.7613 29.4192 90.7991 29.6047 90.8732 29.7617C90.9484 29.9197 91.0645 29.9988 91.2236 29.9988C91.3355 29.9988 91.4648 29.9318 91.6099 29.7968C91.7547 29.6629 91.904 29.4927 92.0589 29.2886C92.2128 29.0844 92.3656 28.8616 92.5149 28.6201C92.6642 28.3786 92.7957 28.1514 92.9076 27.9385C92.7394 27.8463 92.6222 27.7277 92.5568 27.5839C92.4915 27.4401 92.4582 27.2755 92.4582 27.09C92.4582 26.9693 92.4771 26.8485 92.5149 26.7278C92.5523 26.607 92.6075 26.4984 92.6831 26.4007C92.7572 26.303 92.8467 26.225 92.9495 26.1636C93.0523 26.1032 93.1684 26.0736 93.3002 26.0736C93.3565 26.0736 93.4286 26.0758 93.5181 26.0802C93.6065 26.0845 93.6929 26.1076 93.7782 26.1493C93.8621 26.191 93.9342 26.2635 93.9961 26.3645C94.0569 26.4665 94.0866 26.6103 94.0866 26.7958C94.0866 26.8792 94.0768 26.9791 94.059 27.0955C94.0405 27.2119 94.0171 27.3249 93.9894 27.4368C94.2604 27.4094 94.4849 27.3578 94.6632 27.2843C94.8402 27.2096 94.9828 27.1295 95.0912 27.0406C95.1863 26.9627 95.2598 26.8858 95.3115 26.8112C95.357 26.7174 95.4024 26.6249 95.4486 26.5335C95.6455 26.1065 95.8182 25.719 95.9675 25.3711C96.1168 25.0231 96.192 24.7706 96.192 24.6126C96.192 24.594 96.1832 24.5665 96.1644 24.5292C96.1455 24.5105 96.1311 24.4941 96.1224 24.4809C96.1133 24.4666 96.1081 24.437 96.1081 24.3909C96.1081 24.2888 96.1878 24.1988 96.3469 24.1198C96.5063 24.0407 96.6931 24.0012 96.9078 24.0012C97.0196 24.0012 97.1413 24.0177 97.2728 24.0495C97.4036 24.0824 97.5253 24.1395 97.6378 24.224C97.7497 24.3074 97.8438 24.4216 97.919 24.5654C97.9942 24.7092 98.0305 24.8881 98.0305 25.101V25.1702C98.3582 24.8453 98.6855 24.5698 99.0131 24.3415C99.3404 24.1143 99.6635 24.0001 99.981 24.0001C100.336 24.0001 100.617 24.1274 100.823 24.3832C101.029 24.639 101.132 24.9891 101.132 25.4348C101.132 25.5094 101.129 25.5741 101.125 25.629C101.118 25.6679 101.112 25.7096 101.107 25.7537V25.7538C101.104 25.7718 101.102 25.7903 101.1 25.809C101.081 26.0231 101.039 26.2459 100.973 26.4775C100.908 26.7091 100.826 26.9418 100.728 27.1734C100.629 27.405 100.524 27.6377 100.412 27.8693C100.3 28.101 100.192 28.3194 100.089 28.5235C99.9401 28.8111 99.8107 29.0713 99.7033 29.3029C99.596 29.5345 99.5418 29.7156 99.5418 29.8462C99.5418 29.9395 99.5984 29.9856 99.71 29.9856C99.7852 29.9856 99.8946 29.9209 100.04 29.7902C100.184 29.6607 100.342 29.4938 100.51 29.2886C100.678 29.0844 100.854 28.8572 101.036 28.607C101.219 28.3567 101.389 28.1031 101.549 27.8485C101.708 27.5938 101.851 27.3523 101.977 27.124C102.103 26.8968 102.194 26.7091 102.25 26.5598C102.315 26.393 102.432 26.3096 102.601 26.3096C102.703 26.3096 102.794 26.3403 102.874 26.3996C102.953 26.4599 102.993 26.5412 102.993 26.6433C102.993 26.6619 102.989 26.6871 102.979 26.7201C102.969 26.753 102.96 26.7783 102.951 26.7969C102.857 26.9824 102.735 27.2129 102.58 27.4862C102.426 27.7596 102.248 28.0504 102.046 28.3567C101.845 28.6629 101.63 28.9692 101.402 29.2754C101.173 29.5817 100.936 29.8583 100.694 30.1041C100.45 30.35 100.207 30.5498 99.9645 30.7024C99.7212 30.856 99.4876 30.9318 99.2631 30.9318C99.076 30.9318 98.9124 30.8922 98.7718 30.8132C98.6313 30.7342 98.5141 30.6255 98.4211 30.4861C98.327 30.3467 98.2554 30.1843 98.2043 29.9988C98.1522 29.8133 98.127 29.6179 98.127 29.4137C98.127 29.1262 98.1624 28.8364 98.2319 28.5433C98.3019 28.2513 98.3914 27.9681 98.4987 27.6937C98.6061 27.4204 98.7253 27.1559 98.8561 26.9001C98.9865 26.6454 99.1082 26.4062 99.2211 26.1833C99.3516 25.9232 99.4666 25.696 99.5652 25.5017C99.6635 25.3063 99.7121 25.1581 99.7121 25.056C99.7121 24.9814 99.6603 24.9452 99.5586 24.9452C99.4743 24.9452 99.3428 25.0122 99.1656 25.1471C98.9876 25.2822 98.7918 25.4578 98.576 25.6762C98.3603 25.8947 98.1414 26.1384 97.9169 26.4073C97.692 26.6762 97.4906 26.9451 97.3137 27.2151L97.328 27.2009C97.2441 27.3776 97.1546 27.5532 97.0616 27.7299C96.9675 27.9066 96.8745 28.0779 96.7805 28.2447C96.5371 28.6717 96.329 29.0658 96.1567 29.428C95.9829 29.7902 95.8965 30.0734 95.8965 30.2776C95.8965 30.3149 95.9011 30.3456 95.9112 30.3676L95.9136 30.3743V30.3744C95.9217 30.3956 95.9308 30.4187 95.9388 30.4444C95.9476 30.4631 95.9532 30.496 95.9532 30.5421C95.9532 30.653 95.8878 30.7507 95.7573 30.8341C95.6255 30.9175 95.472 30.9592 95.2947 30.9592C95.2108 30.9592 95.1101 30.9405 94.993 30.9032C94.8755 30.8659 94.766 30.8034 94.6632 30.7156C94.5604 30.6277 94.4716 30.5092 94.3964 30.361C94.3213 30.2128 94.2849 30.0273 94.2849 29.8045C94.2849 29.6003 94.3202 29.3687 94.3898 29.1086C94.4597 28.8484 94.5513 28.5751 94.6632 28.2875C94.7083 28.1715 94.7555 28.0544 94.8048 27.9361C94.7007 27.9687 94.5929 27.9972 94.4818 28.0219C94.2296 28.0779 93.9674 28.1097 93.6964 28.1196C93.5656 28.3984 93.402 28.6991 93.2051 29.0241C93.0083 29.349 92.7813 29.6552 92.5247 29.9428C92.267 30.2304 91.9848 30.4696 91.676 30.6596C91.3676 30.8494 91.0312 30.9449 90.6662 30.9449C90.3851 30.9449 90.133 30.8911 89.9085 30.7847C89.6836 30.6782 89.4969 30.5322 89.3476 30.3467C89.1983 30.1612 89.0829 29.945 89.0035 29.6991C88.9252 29.4572 88.8853 29.2037 88.8839 28.9394C88.8189 29.03 88.7521 29.1208 88.6836 29.2118C88.4504 29.5224 88.2091 29.8056 87.9612 30.0614C87.7136 30.3171 87.4636 30.5257 87.2111 30.6881C86.959 30.8506 86.7157 30.9318 86.4821 30.9318C86.117 30.9318 85.8352 30.8045 85.6338 30.5487C85.4324 30.2941 85.3317 29.9428 85.3317 29.4972C85.3317 29.449 85.3331 29.3997 85.3359 29.3495C85.124 29.6273 84.9054 29.8798 84.6823 30.1063C84.439 30.3522 84.1956 30.552 83.9522 30.7046C83.7089 30.8582 83.4753 30.934 83.2508 30.934C82.8857 30.934 82.6036 30.8066 82.4022 30.5509C82.2008 30.2962 82.1004 29.945 82.1004 29.4993C82.1004 29.4345 82.1025 29.372 82.107 29.3116C82.1112 29.2513 82.1189 29.1887 82.128 29.1239C82.1556 28.9011 82.2308 28.6113 82.3525 28.2535C82.3903 28.1424 82.4308 28.0272 82.4742 27.9078C82.3438 27.9524 82.2074 27.9903 82.0647 28.0219C81.8126 28.0779 81.5504 28.1097 81.2794 28.1196C81.149 28.3984 80.985 28.6991 80.7881 29.0241C80.5912 29.349 80.3643 29.6552 80.1077 29.9428C79.8499 30.2304 79.5681 30.4696 79.2594 30.6596C78.9506 30.8494 78.6142 30.9449 78.2492 30.9449C77.9684 30.9449 77.7159 30.8911 77.4914 30.7847C77.267 30.6782 77.0799 30.5322 76.9306 30.3467C76.7813 30.1612 76.6662 29.945 76.5865 29.6991C76.5068 29.4532 76.4669 29.1953 76.4669 28.9264C76.4669 28.3885 76.5676 27.8265 76.769 27.2415C76.9704 26.6564 77.2502 26.1208 77.611 25.6334C77.9705 25.1461 78.3985 24.7454 78.8943 24.4293C79.3898 24.1143 79.9276 23.9562 80.5073 23.9562C80.7405 23.9562 80.9353 23.9902 81.0892 24.0594C81.2441 24.1285 81.3699 24.213 81.4675 24.3152C81.5658 24.4161 81.6378 24.5336 81.6853 24.6675C81.7318 24.8014 81.7651 24.9276 81.784 25.0473V25.0615H81.7805Z" fill="white"/>
</svg>
