<svg width="100" height="50" viewBox="0 0 100 50" fill="none" xmlns="http://www.w3.org/2000/svg">
<path d="M99.6402 49.6106C97.9604 48.1504 96.1377 46.8912 94.2173 45.7742C88.5829 42.4963 82.4521 40.7184 76.0475 39.7919C72.6469 39.3001 69.2239 39.0647 65.7859 38.9936C61.9773 38.916 58.1761 39.0538 54.3773 39.295C49.4012 39.6123 44.4423 40.1439 39.4866 40.6722C37.8014 40.8521 36.1053 40.9456 34.432 41.2276C34.3084 41.2222 34.1818 41.2007 34.0593 41.2126C30.2163 41.5817 26.368 41.8592 22.5035 41.8419C21.003 41.7786 19.5036 41.7184 18.0107 41.5235C10.1475 40.5021 4.4679 33.1329 5.49792 25.2556C5.99845 21.4311 7.71477 18.2415 10.6577 15.7653C13.6919 13.2138 17.2191 12.0666 21.1889 12.2743C22.8697 12.3626 24.4669 12.793 26.0436 13.3257C26.397 13.4452 26.5753 13.3881 26.7793 13.0717C27.4066 12.0935 28.0671 11.1379 28.8254 10.2512C31.6803 6.9195 35.2227 4.66395 39.4295 3.47912C42.843 2.51814 46.2993 2.41805 49.7783 3.14659C53.8273 3.99565 57.3719 5.82616 60.4394 8.60147C61.3608 9.43549 62.2041 10.347 63.0545 11.2595C62.696 10.5461 62.2781 9.87777 61.798 9.24392C60.6485 7.72661 59.3782 6.32548 57.8539 5.17188C56.8348 4.26252 55.6982 3.51354 54.4964 2.88295C48.2574 -0.383104 41.7872 -0.887812 35.1398 1.43878C31.2496 2.80116 27.9587 5.10514 25.2069 8.17641C25.0018 8.40562 24.8364 8.46804 24.5217 8.38413C22.7688 7.916 20.9837 7.66525 19.1632 7.72552C12.5287 7.94722 7.28088 10.7849 3.45614 16.2033C0.954655 19.747 -0.143033 23.7598 0.0148539 28.0686C0.193148 32.9403 1.96857 37.2147 5.28313 40.7994C8.25397 44.0157 11.9133 46.0334 16.2289 46.8137C18.5617 47.2344 20.9236 47.313 23.2854 47.2752C24.5485 47.2548 25.8148 47.2603 27.0725 47.0977C27.1789 47.1021 27.2863 47.1161 27.3937 47.1086C32.5008 46.763 37.5651 46.0453 42.6271 45.3147C43.2983 45.2276 43.9718 45.1467 44.6419 45.0521C50.6759 44.2052 56.7122 43.3776 62.7937 42.9429C67.003 42.6426 71.2163 42.5331 75.431 42.7684C78.5746 42.945 81.6927 43.3378 84.7827 43.9834C90.0501 45.0834 94.9865 46.9882 99.5695 49.813C99.6982 49.8926 99.8058 50.0433 100 49.9882C99.9369 49.8041 99.7692 49.7225 99.6402 49.6106ZM30.9155 41.714C30.9155 41.713 30.9155 41.713 30.9155 41.712C30.9177 41.7096 30.9198 41.7065 30.922 41.7055C30.9284 41.7055 30.9338 41.7041 30.9402 41.7041C30.9316 41.7075 30.9231 41.712 30.9155 41.714Z" fill="#ECF1FF" fill-opacity="0.4"/>
</svg>
