<svg width="43" height="50" viewBox="0 0 43 50" fill="none" xmlns="http://www.w3.org/2000/svg">
<path d="M2.59766 0H13.3035C14.736 0 15.904 1.20052 15.904 2.63488V47.368C15.904 48.8023 14.7248 50 13.3035 50H2.59766C1.18204 50 0 48.8137 0 47.368V2.63488C0 1.18341 1.16796 0 2.59766 0ZM29.5509 0H40.2623C41.692 0 42.86 1.19767 42.86 2.63488V47.368C42.86 48.8023 41.6808 50 40.2623 50H29.5509C28.1324 50 26.9532 48.8137 26.9532 47.368V2.63488C26.9532 1.18341 28.124 0 29.5509 0Z" fill="black" fill-opacity="0.7"/>
</svg>
