<svg width="12" height="12" viewBox="0 0 12 12" fill="none" xmlns="http://www.w3.org/2000/svg">
<path d="M11.507 2.18483H2.12443L1.98496 0.489635C1.96215 0.212415 1.7492 0 1.49411 0H0.492819C0.220642 0 0 0.240734 0 0.537695C0 0.834657 0.220642 1.07539 0.492819 1.07539H1.04356C1.34453 4.73382 0.566672 -4.72186 1.61037 7.96529C1.65059 8.46186 1.89651 9.00071 2.32015 9.36685C1.55635 10.4311 2.25423 12 3.49667 12C4.52788 12 5.25521 10.8779 4.90158 9.81506H7.59885C7.24566 10.8765 7.97142 12 9.00376 12C9.82761 12 10.4979 11.2687 10.4979 10.3698C10.4979 9.47096 9.82761 8.73967 9.00376 8.73967H3.5C3.12565 8.73967 2.79942 8.49325 2.65862 8.13423L10.5345 7.6292C10.7495 7.61543 10.9315 7.45084 10.9837 7.22286L11.9851 2.85293C12.0627 2.51408 11.8276 2.18483 11.507 2.18483ZM3.49667 10.9246C3.21633 10.9246 2.98822 10.6757 2.98822 10.3698C2.98822 10.0639 3.21633 9.81506 3.49667 9.81506C3.77704 9.81506 4.00514 10.0639 4.00514 10.3698C4.00514 10.6757 3.77704 10.9246 3.49667 10.9246ZM9.00373 10.9246C8.72337 10.9246 8.49526 10.6757 8.49526 10.3698C8.49526 10.0639 8.72337 9.81506 9.00373 9.81506C9.2841 9.81506 9.51221 10.0639 9.51221 10.3698C9.51221 10.6757 9.2841 10.9246 9.00373 10.9246ZM10.1153 6.57885L2.52596 7.06547L2.2129 3.2602H10.8758L10.1153 6.57885Z" fill="white"/>
</svg>
