<svg width="40" height="40" viewBox="0 0 40 40" fill="none" xmlns="http://www.w3.org/2000/svg">
<path d="M19.9992 0C25.5211 0 30.5227 2.23906 34.1414 5.85781C37.7602 9.47656 40 14.4773 40 20C40 25.5219 37.7602 30.5227 34.1414 34.1414C30.5227 37.7602 25.5211 40 19.9992 40C14.4773 40 9.47656 37.7602 5.85781 34.1414C2.23906 30.5227 0 25.5219 0 20C0 14.4789 2.23906 9.47656 5.85781 5.85781C9.47656 2.23906 14.4773 0 19.9992 0ZM26.0461 21.0789C27.1203 20.3852 27.1164 19.6125 26.0461 18.9984L17.4312 13.0008C16.557 12.4508 15.643 12.7742 15.6672 13.9164L15.7016 25.9844C15.7766 27.2234 16.4844 27.5633 17.5273 26.9898L26.0461 21.0789ZM32.2453 7.75391C29.1125 4.62109 24.7812 2.68203 19.9992 2.68203C15.2172 2.68203 10.8875 4.62109 7.75391 7.75391C4.62109 10.8875 2.68203 15.218 2.68203 20C2.68203 24.7828 4.62109 29.1125 7.75391 32.2453C10.8875 35.3789 15.2172 37.318 19.9992 37.318C24.7812 37.318 29.1125 35.3789 32.2453 32.2453C35.3789 29.1125 37.318 24.7828 37.318 20C37.318 15.2172 35.3789 10.8875 32.2453 7.75391Z" fill="white"/>
</svg>
