<svg width="40" height="40" viewBox="0 0 40 40" fill="none" xmlns="http://www.w3.org/2000/svg">
<path id="Vector" d="M20 0C25.5219 0 30.5234 2.23911 34.1422 5.85793C37.7609 9.47675 40 14.4784 40 20.0004C40 25.5224 37.7609 30.5233 34.1422 34.1421C30.5234 37.7609 25.5219 40 20 40C14.4781 40 9.47656 37.7609 5.85781 34.1421C2.23906 30.5233 0 25.5224 0 20.0004C0 14.4784 2.23906 9.47675 5.85781 5.85793C9.47656 2.23911 14.4781 0 20 0ZM14.7719 13.1503H17.7437C18.1414 13.1503 18.4656 13.4792 18.4656 13.8721V26.1279C18.4656 26.5208 18.1383 26.849 17.7437 26.849H14.7719C14.3789 26.849 14.0508 26.524 14.0508 26.1279V13.8721C14.0508 13.4745 14.375 13.1503 14.7719 13.1503ZM22.2539 13.1503H25.2273C25.6242 13.1503 25.9484 13.4784 25.9484 13.8721V26.1279C25.9484 26.5208 25.6211 26.849 25.2273 26.849H22.2539C21.8602 26.849 21.5328 26.524 21.5328 26.1279V13.8721C21.5328 13.4745 21.8578 13.1503 22.2539 13.1503ZM32.2461 7.75406C29.1125 4.62118 24.782 2.68208 20 2.68208C15.218 2.68208 10.8875 4.62118 7.75391 7.75406C4.62109 10.8877 2.68203 15.2183 2.68203 20.0004C2.68203 24.7825 4.62109 29.1123 7.75391 32.2459C10.8875 35.3788 15.218 37.3179 20 37.3179C24.782 37.3179 29.1125 35.3788 32.2461 32.2459C35.3789 29.1123 37.318 24.7825 37.318 20.0004C37.318 15.2183 35.3789 10.8877 32.2461 7.75406Z" fill="white"/>
</svg>
