<svg width="18" height="15" viewBox="0 0 18 15" fill="none" xmlns="http://www.w3.org/2000/svg">
<path fill-rule="evenodd" clip-rule="evenodd" d="M5.48808e-05 11.2736C-0.00287468 10.9969 0.111378 10.8394 0.367715 10.8224H2.43013C3.30607 10.8224 3.73232 10.8451 4.47789 10.2676C4.63609 10.1456 4.78549 10.0037 4.92611 9.84192C5.59259 9.07429 5.82988 8.1449 6.0789 7.16017C6.56081 5.25031 7.32835 3.23261 9.37172 2.43376C10.5348 1.97971 12.1284 2.06626 13.3867 2.06626H14.1586L14.1601 0.640255C14.1601 -0.0706218 14.3329 -0.194067 14.8617 0.29262L17.7254 2.92896C18.0711 3.2468 18.0227 3.45396 17.6931 3.76045L14.8661 6.38544C14.3725 6.86929 14.1498 6.73308 14.1601 6.06477V4.39045C9.17984 4.31666 9.3893 4.62741 8.00069 9.22753C7.48802 10.6521 6.71022 11.651 5.7171 12.3052C4.67857 12.9891 3.71328 13.2118 2.49165 13.2118H0.974134C0.104054 13.2118 5.48808e-05 13.1721 5.48808e-05 12.3094V11.2736ZM0.0337448 3.7264C0.0308153 4.00308 0.145068 4.16058 0.401405 4.17761H2.55463C3.43057 4.17761 3.85682 4.15491 4.6024 4.73241C4.76059 4.85443 4.91 4.99632 5.05062 5.15808C5.22053 5.35389 5.36262 5.56105 5.4842 5.77531C5.70391 5.10984 5.97636 4.45714 6.3367 3.85977C6.43923 3.69092 6.54763 3.52633 6.66334 3.36599C6.40847 3.11059 6.13456 2.88782 5.8416 2.69484C4.80307 2.01093 3.83778 1.78816 2.61615 1.78816H1.00782C0.137744 1.78816 0.0337448 1.82789 0.0337448 2.69059V3.7264ZM7.84689 11.4155C8.28046 11.9008 8.81804 12.3009 9.4977 12.5662C10.6607 13.0203 12.1651 12.9337 13.4233 12.9337H14.1952L14.1967 14.3597C14.1967 15.0706 14.3696 15.1941 14.8983 14.7074L17.762 12.071C18.1077 11.7532 18.0593 11.546 17.7298 11.2396L14.9027 8.61456C14.4091 8.13071 14.1865 8.26692 14.1967 8.93523V10.6096C10.567 10.6635 9.74085 10.5116 9.02311 8.64577C8.98356 8.77915 8.92936 8.96219 8.7404 9.58935C8.73601 9.60354 8.73162 9.61631 8.72722 9.62908C8.4826 10.3045 8.18818 10.8962 7.84689 11.4155Z" fill="#BA0038"/>
</svg>
