<svg width="49" height="49" viewBox="0 0 49 49" fill="none" xmlns="http://www.w3.org/2000/svg">
<path d="M42 5H1" stroke="white" stroke-width="2" stroke-linecap="round" stroke-linejoin="round"/>
<path d="M18.1016 18.0625H22.1016" stroke="white" stroke-width="2" stroke-miterlimit="10"/>
<path d="M16.1016 18.0625H9.10156" stroke="white" stroke-width="2" stroke-miterlimit="10"/>
<path d="M4.10156 22.0625H10.0009" stroke="white" stroke-width="2" stroke-miterlimit="10"/>
<path d="M12 22.0625H18" stroke="white" stroke-width="2" stroke-miterlimit="10"/>
<path d="M26.2637 27.2637L23.7637 30.2637L26.2637 33.2637" stroke="white" stroke-width="2" stroke-linecap="round" stroke-linejoin="round"/>
<path d="M35.7637 27.2637L38.2637 30.2637L35.7637 33.2637" stroke="white" stroke-width="2" stroke-linecap="round" stroke-linejoin="round"/>
<path d="M30.0137 33.2637L32.0137 27.2637" stroke="white" stroke-width="2" stroke-linecap="round" stroke-linejoin="round"/>
<path d="M30.7637 41.7637C37.1149 41.7637 42.2637 36.6149 42.2637 30.2637C42.2637 23.9124 37.1149 18.7637 30.7637 18.7637C24.4124 18.7637 19.2637 23.9124 19.2637 30.2637C19.2637 36.6149 24.4124 41.7637 30.7637 41.7637Z" stroke="white" stroke-width="2" stroke-miterlimit="10"/>
<path d="M38.6875 38.6875L47.027 47.027" stroke="white" stroke-width="2" stroke-linecap="round" stroke-linejoin="round"/>
<path d="M18.1016 18.0625H22.1016" stroke="white" stroke-width="2" stroke-miterlimit="10"/>
<path d="M16.1016 18.0625H9.10156" stroke="white" stroke-width="2" stroke-miterlimit="10"/>
<path d="M4.10156 22.0625H10.0009" stroke="white" stroke-width="2" stroke-miterlimit="10"/>
<path d="M12 22.0625H18" stroke="white" stroke-width="2" stroke-miterlimit="10"/>
<path d="M4.10156 30H7.10156" stroke="white" stroke-width="2" stroke-miterlimit="10"/>
<path d="M9.10156 30H16.0009" stroke="white" stroke-width="2" stroke-miterlimit="10"/>
<path d="M16.1016 34H9.10156" stroke="white" stroke-width="2" stroke-miterlimit="10"/>
<path d="M4.10156 38H7.00092" stroke="white" stroke-width="2" stroke-miterlimit="10"/>
<path d="M9 38H18" stroke="white" stroke-width="2" stroke-miterlimit="10"/>
<path d="M9 26H16" stroke="white" stroke-width="2" stroke-miterlimit="10"/>
<path d="M16.1016 42H9.10156" stroke="white" stroke-width="2" stroke-miterlimit="10"/>
<path d="M4.10156 10H7.10156" stroke="white" stroke-width="2" stroke-miterlimit="10"/>
<path d="M9.10156 10H28.0009" stroke="white" stroke-width="2" stroke-miterlimit="10"/>
<path d="M4.10156 10H7.10156" stroke="white" stroke-width="2" stroke-miterlimit="10"/>
<path d="M9.10156 10H28.0009" stroke="white" stroke-width="2" stroke-miterlimit="10"/>
<path d="M18.1016 14H32.0009" stroke="white" stroke-width="2" stroke-miterlimit="10"/>
<path d="M16.1016 14H9.10156" stroke="white" stroke-width="2" stroke-miterlimit="10"/>
<path d="M18.1016 14H32.0009" stroke="white" stroke-width="2" stroke-miterlimit="10"/>
<path d="M16.1016 14H9.10156" stroke="white" stroke-width="2" stroke-miterlimit="10"/>
<path d="M42 20V1H1V47H36" stroke="white" stroke-width="2" stroke-linecap="round" stroke-linejoin="round"/>
</svg>
