<svg width="17" height="25" viewBox="0 0 17 25" fill="none" xmlns="http://www.w3.org/2000/svg">
<path d="M9.17641 19.4194V24.3245C9.17641 24.6969 8.87284 25 8.5 25C8.12716 25 7.82359 24.6969 7.82359 24.3245V19.4194C5.7536 19.2546 3.88734 18.3411 2.49784 16.9535C0.955537 15.4154 0 13.2935 0 10.9599C0 10.5876 0.303571 10.2844 0.676414 10.2844C1.04926 10.2844 1.35283 10.5876 1.35283 10.9599C1.35283 12.9211 2.1576 14.7054 3.45338 15.9993C4.74916 17.2933 6.53595 18.0969 8.5 18.0969C10.464 18.0969 12.2508 17.2933 13.5466 15.9993C14.8424 14.7054 15.6472 12.9211 15.6472 10.9599C15.6472 10.5876 15.9507 10.2844 16.3236 10.2844C16.6964 10.2844 17 10.5876 17 10.9599C17 13.2955 16.0445 15.4175 14.5042 16.9556C13.1127 18.3431 11.2464 19.2546 9.17641 19.4194ZM8.54482 0C9.84468 0 11.0264 0.531006 11.8821 1.3855C12.7378 2.23999 13.2695 3.42 13.2695 4.71802V10.8215C13.2695 12.1195 12.7378 13.2996 11.8821 14.1541C11.0264 15.0085 9.84468 15.5396 8.54482 15.5396C7.24497 15.5396 6.06328 15.0085 5.20757 14.1541C4.35187 13.2996 3.82011 12.1195 3.82011 10.8215V4.71802C3.82011 3.42 4.35187 2.23999 5.20757 1.3855C6.06328 0.531006 7.24497 0 8.54482 0ZM10.9245 2.34172C10.3133 1.73136 9.4698 1.35295 8.54482 1.35295C7.61781 1.35295 6.77637 1.73136 6.16515 2.34172C5.55393 2.95207 5.17498 3.79435 5.17498 4.71802V10.8215C5.17498 11.7472 5.55393 12.5875 6.16515 13.1978C6.77637 13.8082 7.61985 14.1866 8.54482 14.1866C9.47184 14.1866 10.3133 13.8082 10.9245 13.1978C11.5357 12.5875 11.9147 11.7452 11.9147 10.8215V4.71802C11.9167 3.79232 11.5357 2.95207 10.9245 2.34172Z" fill="#6C6C6C"/>
</svg>
