<svg width="27" height="25" viewBox="0 0 27 25" fill="none" xmlns="http://www.w3.org/2000/svg">
<path fill-rule="evenodd" clip-rule="evenodd" d="M5.44345 0C2.44099 0 0 2.6888 0 5.98959C0 8.06811 0.968393 9.9028 2.43487 10.9764C1.34762 11.1167 0.498237 12.1356 0.498237 13.3657V22.5888C0.498237 23.9141 1.4841 25 2.69127 25H18.2543C19.4614 25 20.4473 23.9141 20.4473 22.5888V21.4415L26.3263 24.6531C26.3972 24.692 26.476 24.7104 26.5552 24.7065C26.6344 24.7026 26.7114 24.6766 26.7788 24.631C26.8463 24.5854 26.902 24.5216 26.9407 24.4458C26.9794 24.3699 26.9998 24.2845 27 24.1976V11.7609C26.9998 11.674 26.9794 11.5886 26.9407 11.5127C26.902 11.4369 26.8463 11.3731 26.7788 11.3275C26.7114 11.2819 26.6344 11.2559 26.5552 11.252C26.476 11.2481 26.3972 11.2665 26.3263 11.3054L20.4473 14.517V13.3657C20.4473 12.135 19.5969 11.1149 18.5089 10.9754C19.976 9.90174 20.9455 8.06782 20.9455 5.98959C20.9455 2.6888 18.5009 0 15.4984 0C13.2363 0 11.2931 1.52646 10.4723 3.69104C9.65059 1.52646 7.70564 0 5.44345 0ZM5.44345 1.02069C7.94088 1.02069 9.95862 3.23839 9.95862 5.98959C9.95862 8.7408 7.94088 10.9585 5.44345 10.9585C2.94603 10.9585 0.931938 8.7408 0.931938 5.98959C0.931938 3.23839 2.94603 1.02069 5.44345 1.02069ZM15.4984 1.02069C17.9959 1.02069 20.0136 3.23839 20.0136 5.98959C20.0136 8.7408 17.9959 10.9585 15.4984 10.9585C13.001 10.9585 10.9869 8.7408 10.9869 5.98959C10.9869 3.23839 13.001 1.02069 15.4984 1.02069ZM5.44345 3.49966C4.19731 3.49966 3.17861 4.62145 3.17861 5.98959C3.17861 7.35774 4.19731 8.47952 5.44345 8.47952C6.6896 8.47952 7.7083 7.35774 7.7083 5.98959C7.7083 4.62145 6.6896 3.49966 5.44345 3.49966ZM15.4984 3.49966C14.2523 3.49966 13.2336 4.62145 13.2336 5.98959C13.2336 7.35774 14.2523 8.47952 15.4984 8.47952C16.7446 8.47952 17.7633 7.35774 17.7633 5.98959C17.7633 4.62145 16.7446 3.49966 15.4984 3.49966ZM5.44345 4.52035C6.18456 4.52035 6.77728 5.17102 6.77728 5.98959C6.77728 6.80817 6.18456 7.45883 5.44345 7.45883C4.70236 7.45883 4.11055 6.80817 4.11055 5.98959C4.11055 5.17102 4.70236 4.52035 5.44345 4.52035ZM15.4984 4.52035C16.2395 4.52035 16.8314 5.17102 16.8314 5.98959C16.8314 6.80817 16.2395 7.45883 15.4984 7.45883C14.7574 7.45883 14.1655 6.80817 14.1655 5.98959C14.1655 5.17102 14.7574 4.52035 15.4984 4.52035ZM10.4723 8.28815C10.8859 9.37793 11.5848 10.3063 12.4653 10.9585H8.4784C9.35951 10.3063 10.0583 9.37792 10.4723 8.28815ZM2.69127 11.9762H18.2543C18.9599 11.9762 19.5153 12.5862 19.5153 13.3657V15.3403V20.6182V22.5888C19.5153 23.3683 18.9599 23.9783 18.2543 23.9783H2.69127C1.98565 23.9783 1.43019 23.3683 1.43019 22.5888V13.3657C1.43019 12.5862 1.98565 11.9762 2.69127 11.9762ZM26.069 12.5902V23.3683L20.4473 20.3012V15.6563L26.069 12.5902Z" fill="#6C6C6C"/>
</svg>
