<svg width="25" height="25" viewBox="0 0 25 25" fill="none" xmlns="http://www.w3.org/2000/svg">
<path d="M16 12.5C16 10.5556 14.4444 9 12.5 9C10.5556 9 9 10.5556 9 12.5C9 14.4444 10.5556 16 12.5 16C14.4444 16 16 14.4444 16 12.5ZM12.5 14.4444C11.4111 14.4444 10.5556 13.5889 10.5556 12.5C10.5556 11.4111 11.4111 10.5556 12.5 10.5556C13.5889 10.5556 14.4444 11.4111 14.4444 12.5C14.4444 13.5889 13.5889 14.4444 12.5 14.4444Z" fill="#787878"/>
<path d="M20.3263 13.0141C19.8728 12.9318 19.4605 13.2199 19.3368 13.6315C19.0482 15.0311 18.3473 16.3072 17.3166 17.3364C16.2858 18.3655 15.049 19.0241 13.6472 19.3534C13.1936 19.4357 12.905 19.8886 13.0287 20.3414C13.1112 20.7118 13.441 21 13.8533 21C13.8945 21 13.977 21 14.0182 21C15.7086 20.6295 17.2753 19.7651 18.5122 18.5301C19.7491 17.2952 20.6149 15.7309 20.986 14.002C21.0684 13.5492 20.7798 13.1376 20.3263 13.0141Z" fill="#787878"/>
<path d="M11.9716 4.6483C11.8896 4.19398 11.4385 3.90487 10.9873 4.02878C9.26492 4.40049 7.70653 5.26783 6.47623 6.50688C5.24593 7.74593 4.38472 9.31539 4.01563 11.0088C3.93361 11.4631 4.17967 11.8761 4.63078 12C4.67179 12 4.75381 12 4.79482 12C5.16391 12 5.49199 11.7522 5.61502 11.3392C5.90209 9.93492 6.59926 8.65456 7.62452 7.66332C8.64977 6.63078 9.92108 5.92865 11.3154 5.63954C11.8075 5.55694 12.0946 5.10262 11.9716 4.6483Z" fill="#787878"/>
<path d="M24.1935 8.10484C22.9839 4.83871 20.4435 2.21774 17.2177 0.927419C15.7258 0.322581 14.1129 0 12.5 0C10.8871 0 9.31452 0.322581 7.82258 0.887097C4.59677 2.21774 2.01613 4.83871 0.806452 8.10484C0.282258 9.51613 0 10.9677 0 12.5C0 13.9113 0.241935 15.2419 0.685484 16.5726C1.85484 20 4.47581 22.7419 7.82258 24.1129C9.31452 24.6774 10.8871 25 12.5 25C14.1532 25 15.7258 24.6774 17.2177 24.0726C20.5645 22.7016 23.1452 19.9597 24.3145 16.5726C24.7581 15.2419 25 13.9113 25 12.5C25 10.9677 24.7177 9.51613 24.1935 8.10484ZM22.7823 16.0484C21.7742 19.0323 19.5161 21.4113 16.6129 22.5806C15.3226 23.1048 13.9516 23.3871 12.5 23.3871C11.0887 23.3871 9.71774 23.1048 8.42742 22.621C5.48387 21.4113 3.22581 19.0323 2.21774 16.0484C1.81452 14.9194 1.6129 13.7097 1.6129 12.5C1.6129 11.1694 1.85484 9.87903 2.29839 8.66935C3.34677 5.80645 5.60484 3.54839 8.42742 2.37903C11.0081 1.33065 13.9919 1.33065 16.5726 2.37903C19.3952 3.50806 21.6129 5.80645 22.6613 8.62903C23.1048 9.83871 23.3468 11.129 23.3468 12.4597C23.3871 13.7097 23.1855 14.9194 22.7823 16.0484Z" fill="#787878"/>
</svg>
