<svg width="25" height="25" viewBox="0 0 25 25" fill="none" xmlns="http://www.w3.org/2000/svg">
<path d="M24.4792 9.47161H23.0208V8.95052C23.0208 8.06468 22.3438 7.38726 21.4583 7.38726H5.15625L20.1042 0.977893C20.3646 0.873676 20.4687 0.561023 20.3646 0.30048C20.2604 0.0399365 19.9479 -0.0642809 19.6875 0.0399365L2.5 7.38726H1.5625C0.677083 7.38726 0 8.06468 0 8.95052V23.4367C0 24.3226 0.677083 25 1.5625 25H21.4583C22.3438 25 23.0208 24.3226 23.0208 23.4367V14.8909H24.4792C24.7917 14.8909 25 14.6825 25 14.3698V9.9927C25 9.68005 24.7917 9.47161 24.4792 9.47161ZM21.9792 23.4367C21.9792 23.7494 21.7708 23.9578 21.4583 23.9578H1.5625C1.25 23.9578 1.04167 23.7494 1.04167 23.4367V8.95052C1.04167 8.63787 1.25 8.42944 1.5625 8.42944H2.60417H21.4583C21.7708 8.42944 21.9792 8.63787 21.9792 8.95052V23.4367ZM23.9583 13.8487H23.0208V10.5138H23.9583V13.8487Z" fill="#787878"/>
<path d="M2.52486 13H20.4751C20.7901 13 21 12.8605 21 12.6512V10.3488C21 10.1395 20.7901 10 20.4751 10H2.52486C2.20994 10 2 10.1395 2 10.3488V12.6512C2 12.8605 2.20994 13 2.52486 13ZM3.04972 10.7326H19.9503V12.3372H6.51381V11.5349C6.51381 11.3256 6.30387 11.186 5.98895 11.186C5.67403 11.186 5.46409 11.3256 5.46409 11.5349V12.3372H3.04972V10.7326Z" fill="#787878"/>
<path d="M6 15C3.81333 15 2 16.8133 2 19C2 21.1867 3.81333 23 6 23C8.18667 23 10 21.1867 10 19C10 16.8133 8.18667 15 6 15ZM6 21.9333C4.4 21.9333 3.06667 20.6 3.06667 19C3.06667 17.4 4.4 16.0667 6 16.0667C7.6 16.0667 8.93333 17.4 8.93333 19C8.93333 20.6 7.6 21.9333 6 21.9333Z" fill="#787878"/>
<path d="M20.4904 15H13.5096C13.2038 15 13 15.2 13 15.5C13 15.8 13.2038 16 13.5096 16H20.4904C20.7962 16 21 15.8 21 15.5C21 15.25 20.7962 15 20.4904 15Z" fill="#787878"/>
<path d="M20.4904 17H13.5096C13.2038 17 13 17.2 13 17.5C13 17.8 13.2038 18 13.5096 18H20.4904C20.7962 18 21 17.8 21 17.5C21 17.25 20.7962 17 20.4904 17Z" fill="#787878"/>
<path d="M20.4904 19H13.5096C13.2038 19 13 19.2 13 19.5C13 19.8 13.2038 20 13.5096 20H20.4904C20.7962 20 21 19.8 21 19.5C21 19.2 20.7962 19 20.4904 19Z" fill="#787878"/>
<path d="M18.5238 21H15.4762C15.1905 21 15 21.2 15 21.5C15 21.8 15.1905 22 15.4762 22H18.5238C18.8095 22 19 21.8 19 21.5C19 21.25 18.8095 21 18.5238 21Z" fill="#787878"/>
</svg>
