<svg width="33" height="25" viewBox="0 0 33 25" fill="none" xmlns="http://www.w3.org/2000/svg">
<path d="M16.5 7.97193C17.6895 7.97193 18.7669 8.47859 19.5471 9.29753C20.3264 10.1175 20.8084 11.2488 20.8084 12.5C20.8084 13.7502 20.3264 14.8825 19.5471 15.7025C18.7669 16.5214 17.6906 17.0281 16.5 17.0281C15.3105 17.0281 14.2331 16.5214 13.4529 15.7025C12.6736 14.8825 12.1916 13.7512 12.1916 12.5C12.1916 11.2498 12.6736 10.1175 13.4529 9.29753C14.2331 8.47859 15.3094 7.97193 16.5 7.97193ZM27.0735 1.38747C26.7713 1.06988 26.7713 0.555786 27.0735 0.238194C27.3757 -0.079398 27.8648 -0.079398 28.167 0.238194C31.389 3.62336 33 8.06221 33 12.5C33 16.9378 31.389 21.3756 28.167 24.7618C27.8648 25.0794 27.3757 25.0794 27.0735 24.7618C26.7713 24.4442 26.7713 23.9301 27.0735 23.6125C29.9933 20.5439 31.4527 16.5225 31.4527 12.5C31.4527 8.47752 29.9933 4.45611 27.0735 1.38747ZM5.9265 23.6125C6.22868 23.9301 6.22868 24.4442 5.9265 24.7618C5.62431 25.0794 5.13515 25.0794 4.83297 24.7618C1.61099 21.3766 0 16.9378 0 12.5C0 8.06221 1.61099 3.62442 4.83297 0.238194C5.13515 -0.079398 5.62431 -0.079398 5.9265 0.238194C6.22868 0.555786 6.22868 1.06988 5.9265 1.38747C3.00671 4.45611 1.54732 8.47859 1.54732 12.5C1.54732 16.5225 3.00772 20.5439 5.9265 23.6125ZM22.7509 5.93042C22.4487 5.61282 22.4487 5.09873 22.7509 4.78114C23.0531 4.46355 23.5423 4.46355 23.8444 4.78114C25.8728 6.91293 26.8875 9.70647 26.8875 12.5C26.8875 15.2935 25.8728 18.0881 23.8455 20.2189C23.5433 20.5365 23.0541 20.5365 22.7519 20.2189C22.4497 19.9023 22.4497 19.3872 22.7519 19.0696C24.4781 17.2554 25.3412 14.8772 25.3412 12.5C25.3412 10.1218 24.4781 7.74356 22.7519 5.93042H22.7509ZM10.2481 19.0706C10.5503 19.3882 10.5503 19.9023 10.2481 20.2199C9.94588 20.5375 9.45673 20.5375 9.15454 20.2199C7.12615 18.0881 6.11145 15.2946 6.11145 12.5011C6.11145 9.70753 7.12615 6.91293 9.15353 4.7822C9.45572 4.46461 9.94487 4.46461 10.2471 4.7822C10.5492 5.09873 10.5492 5.61389 10.2471 5.93148C8.52086 7.74568 7.65775 10.1239 7.65775 12.5011C7.65775 14.8793 8.52086 17.2575 10.2471 19.0706H10.2481ZM18.4526 10.4479C17.9533 9.92315 17.262 9.59812 16.5 9.59812C15.737 9.59812 15.0467 9.92315 14.5474 10.4479C14.0481 10.9726 13.7389 11.6991 13.7389 12.5C13.7389 13.3019 14.0481 14.0274 14.5474 14.5521C15.0467 15.0768 15.738 15.4019 16.5 15.4019C17.263 15.4019 17.9533 15.0768 18.4526 14.5521C18.9519 14.0274 19.2611 13.3009 19.2611 12.5C19.2611 11.6981 18.9519 10.9726 18.4526 10.4479Z" fill="#787878"/>
</svg>
