<svg width="22" height="25" viewBox="0 0 22 25" fill="none" xmlns="http://www.w3.org/2000/svg">
<path fill-rule="evenodd" clip-rule="evenodd" d="M16.5842 1.23154e-09C17.9716 -2.84066e-05 19.3614 0.491401 20.4168 1.47366C22.5275 3.43805 22.5279 6.6405 20.4168 8.60224C19.0134 9.9081 17.2589 10.2067 15.7166 9.83621L3.77075 19.557C3.71189 19.604 3.64393 19.6402 3.57053 19.6635C2.97488 19.8657 2.37595 19.7494 1.88306 19.4771C1.3596 20.1036 1.19372 20.7169 1.22524 21.2792C1.26197 21.9377 1.5961 22.5568 2.11187 23.0281C2.62764 23.4995 3.31578 23.8049 3.99956 23.8537C4.68222 23.9025 5.3606 23.7217 5.9826 23.1524C5.98342 23.1524 5.98178 23.1442 5.9826 23.1436L13.0662 16.5565C13.8049 15.8691 14.6903 15.5623 15.5355 15.5711C15.5918 15.5711 15.6512 15.5677 15.7071 15.5711C16.6011 15.6261 17.4131 16.0147 18.0238 16.5832C18.6346 17.1516 19.0516 17.917 19.1107 18.7493C19.1697 19.5815 18.8404 20.475 18.0524 21.2083C17.9959 21.2625 17.9283 21.3057 17.8536 21.3353C17.7789 21.3649 17.6986 21.3803 17.6175 21.3806C17.5363 21.3809 17.4559 21.3662 17.3809 21.3372C17.3059 21.3083 17.2379 21.2657 17.1808 21.212C17.1238 21.1582 17.0788 21.0944 17.0485 21.0243C17.0182 20.9542 17.0033 20.8791 17.0046 20.8036C17.0058 20.728 17.0233 20.6534 17.0558 20.5842C17.0884 20.515 17.1355 20.4525 17.1944 20.4005C17.7634 19.8709 17.9368 19.3402 17.8999 18.8203C17.863 18.3004 17.5875 17.7835 17.1658 17.391C16.744 16.9985 16.1897 16.7418 15.6308 16.7075C15.0719 16.6731 14.4932 16.8348 13.9243 17.3644L6.84064 23.9514C6.84067 23.9544 6.84067 23.9573 6.84064 23.9603C5.98156 24.7485 4.90834 25.0618 3.90423 24.99C2.90011 24.9183 1.96247 24.4836 1.25382 23.836C0.545209 23.1884 0.0595179 22.3095 0.00490818 21.3325C-0.0441185 20.4565 0.272588 19.5237 1.02501 18.6693C0.759224 18.2234 0.658638 17.6768 0.88202 17.1424C0.909175 17.0803 0.947907 17.0232 0.996425 16.9737C4.68951 13.0661 7.75867 9.73807 11.4359 5.85027C11.0431 4.41269 11.3605 2.77489 12.7611 1.47369C13.815 0.491692 15.1971 1.70459e-05 16.5842 1.23154e-09ZM16.5842 1.13631C15.5116 1.13628 14.4397 1.51657 13.6192 2.2815C13.5929 2.30591 13.5681 2.328 13.5429 2.35252C13.5421 2.38484 13.5484 2.46721 13.6097 2.6366C13.6882 2.85364 13.8421 3.15563 14.0673 3.47996C14.5177 4.12861 15.2268 4.89642 15.9931 5.60167C16.7594 6.30692 17.5892 6.95237 18.2907 7.36828C18.6417 7.57624 18.9624 7.72058 19.1965 7.7944C19.3814 7.85271 19.4734 7.85557 19.5016 7.85654C19.5213 7.83873 19.5391 7.82161 19.5588 7.80327C21.2026 6.27601 21.2032 3.81193 19.5588 2.2815C18.7365 1.51629 17.6568 1.13633 16.5842 1.13631ZM12.704 3.55098C12.3621 4.36011 12.4235 5.19008 12.7516 5.9834C13.2522 7.19252 14.4313 8.25243 15.7452 8.66439C15.758 8.66696 15.7708 8.66991 15.7834 8.67325C16.5852 8.91827 17.4149 8.95166 18.224 8.64663C18.0322 8.55504 17.8329 8.44559 17.6329 8.32704C16.8229 7.84692 15.9511 7.16051 15.1351 6.40951C14.3191 5.65852 13.5697 4.84509 13.0472 4.0925C12.9189 3.90797 12.803 3.72897 12.704 3.55098ZM9.84381 9.25917C7.22438 12.0504 4.79339 14.6714 1.99746 17.6306C1.93605 17.8729 2.04658 18.135 2.28348 18.3497C2.5175 18.5618 2.81746 18.6587 3.06525 18.616L12.0461 11.3099L9.84381 9.25917Z" fill="#787878"/>
</svg>
