<svg width="40" height="40" viewBox="0 0 40 40" fill="none" xmlns="http://www.w3.org/2000/svg">
<path d="M32.7936 12.2952C32.5487 12.0297 32.1427 11.9312 31.7816 12.0494L8.8492 19.4253C8.39106 19.5735 8.06948 19.9328 8.00978 20.3632C7.95065 20.7915 8.16275 21.207 8.56062 21.4462L11.8386 23.4378C12.1562 23.6309 12.5645 23.6516 12.9046 23.4918L20.0152 20.1545L14.4734 23.8375C14.2132 24.0104 14.0578 24.2863 14.0578 24.5752V27.9867C14.0578 28.3386 14.2746 28.661 14.6237 28.8284C14.9733 28.9958 15.3956 28.9791 15.7277 28.7842L18.2181 27.314L20.6671 28.8002C20.8817 28.9311 21.1373 29 21.3951 29C21.4823 29 21.5699 28.992 21.6561 28.9761C22 28.9122 22.3042 28.7231 22.4909 28.4573L32.8663 13.2302C33.0683 12.9371 33.0393 12.5619 32.7936 12.2952ZM21.3404 27.63L18.8042 26.0908C18.6278 25.9836 18.4245 25.9299 18.2213 25.9299C18.0226 25.9299 17.8236 25.9813 17.6495 26.0842L15.5234 27.3394V24.7677L25.309 18.2644C25.746 17.974 25.856 17.4454 25.5648 17.0349C25.2734 16.6244 24.6899 16.4857 24.2075 16.7122L12.4507 22.2302L9.67814 20.5457L30.7957 13.7536L21.3404 27.63Z" fill="white"/>
<circle cx="20" cy="20" r="19.5" stroke="white"/>
</svg>
