<svg width="24" height="24" viewBox="0 0 24 24" fill="none" xmlns="http://www.w3.org/2000/svg">
<path fill-rule="evenodd" clip-rule="evenodd" d="M17.5034 0H6.49658C2.91431 0 0 2.91431 0 6.49658V17.5036C0 21.0857 2.91431 24 6.49658 24H17.5036C21.0857 24 24 21.0857 24 17.5036V6.49658C24 2.91431 21.0857 0 17.5034 0ZM22.593 17.5036C22.593 20.3099 20.3099 22.593 17.5034 22.593H6.49658C3.69012 22.593 1.40698 20.3099 1.40698 17.5036V6.49658C1.40698 3.69012 3.69012 1.40698 6.49658 1.40698H17.5036C20.3099 1.40698 22.593 3.69012 22.593 6.49658V17.5036ZM11.9998 5.4375C8.38129 5.4375 5.4375 8.38129 5.4375 11.9998C5.4375 15.6183 8.38129 18.5621 11.9998 18.5621C15.6183 18.5621 18.5621 15.6183 18.5621 11.9998C18.5621 8.38129 15.6183 5.4375 11.9998 5.4375ZM11.9998 17.1552C9.15729 17.1552 6.84448 14.8425 6.84448 11.9998C6.84448 9.15729 9.15729 6.84448 11.9998 6.84448C14.8425 6.84448 17.1552 9.15729 17.1552 11.9998C17.1552 14.8425 14.8425 17.1552 11.9998 17.1552ZM16.7794 5.04596C16.7794 3.97681 17.6491 3.10687 18.7185 3.10687C19.7878 3.10687 20.6577 3.97663 20.6577 5.04596C20.6577 6.1153 19.7878 6.98523 18.7185 6.98523C17.6491 6.98523 16.7794 6.1153 16.7794 5.04596ZM18.1864 5.04596C18.1864 5.3393 18.4251 5.57807 18.7185 5.57807C19.012 5.57807 19.2507 5.3393 19.2507 5.04596C19.2507 4.75244 19.012 4.51386 18.7185 4.51386C18.4251 4.51386 18.1864 4.75244 18.1864 5.04596Z" fill="white"/>
</svg>
