<svg width="19" height="15" viewBox="0 0 19 15" fill="none" xmlns="http://www.w3.org/2000/svg">
<path d="M12.5479 9.45259C12.3428 9.66232 12.3428 10.0009 12.5479 10.2091C12.7529 10.4188 13.084 10.4188 13.2876 10.2091L15.1963 8.25716L17.105 10.2091C17.3101 10.4188 17.6411 10.4188 17.8447 10.2091C18.0498 9.99938 18.0498 9.66082 17.8447 9.45259L15.9375 7.50065L17.8462 5.54872C18.0513 5.33899 18.0513 5.00044 17.8462 4.79221C17.6411 4.58249 17.3101 4.58249 17.1064 4.79221L15.1978 6.74415L13.2891 4.79221C13.084 4.58249 12.7529 4.58249 12.5493 4.79221C12.3442 5.00194 12.3442 5.34049 12.5493 5.54872L14.458 7.50065L12.5479 9.45259ZM1.66846 11.454H5.53564L8.82715 14.8425C9.03076 15.0522 9.36035 15.0522 9.56543 14.844C9.66797 14.7392 9.71924 14.6028 9.71924 14.465H9.7207V0.534798C9.7207 0.239685 9.48633 0 9.19775 0C9.05127 0 8.91797 0.0614185 8.82275 0.161787L5.56348 2.9721H1.66846C1.20996 2.9721 0.79248 3.16385 0.490723 3.47244C0.1875 3.78104 0 4.20798 0 4.67686V9.7477C0 10.2166 0.1875 10.6435 0.489258 10.9521C0.791016 11.2622 1.2085 11.454 1.66846 11.454ZM5.75098 10.3829H1.66846C1.49854 10.3829 1.34326 10.311 1.23047 10.1956C1.11768 10.0803 1.04736 9.92148 1.04736 9.7477V4.67686C1.04736 4.50309 1.11768 4.3443 1.23047 4.22895C1.34326 4.1136 1.49854 4.04169 1.66846 4.04169H5.75098V4.0387C5.86963 4.0387 5.98828 3.99825 6.08643 3.91436L8.6748 1.68229V13.1707L6.14795 10.5701C6.05273 10.4563 5.90918 10.3829 5.75098 10.3829Z" fill="white"/>
</svg>
