<svg width="19" height="15" viewBox="0 0 19 15" fill="none" xmlns="http://www.w3.org/2000/svg">
<path d="M1.70068 3.5437H5.63851L8.99348 0.153703C9.09299 0.0552133 9.22712 0 9.36685 0C9.50659 0 9.64072 0.0552133 9.74023 0.153703C9.78989 0.203262 9.82916 0.26231 9.85572 0.32736C9.88227 0.39241 9.89557 0.462142 9.89484 0.532439V14.4649C9.89444 14.5714 9.86252 14.6754 9.80313 14.7636C9.74374 14.8519 9.65957 14.9204 9.56131 14.9605C9.46304 15.0006 9.35512 15.0104 9.25127 14.9888C9.14741 14.9672 9.05229 14.915 8.97802 14.839L5.66634 12.0264H1.70068C1.24963 12.0264 0.817055 11.8466 0.498116 11.5264C0.179178 11.2062 0 10.7719 0 10.319L0 5.24956C0 4.79673 0.179178 4.36244 0.498116 4.04224C0.817055 3.72203 1.24963 3.54215 1.70068 3.54215V3.5437ZM11.7687 5.87199C11.7421 5.80835 11.729 5.73989 11.7301 5.6709C11.7312 5.60192 11.7465 5.53391 11.7751 5.47116C11.8036 5.40841 11.8448 5.35227 11.8961 5.30629C11.9473 5.26031 12.0075 5.22547 12.0728 5.20398C12.1381 5.18248 12.2071 5.17479 12.2755 5.1814C12.3439 5.188 12.4102 5.20874 12.4702 5.24233C12.5303 5.27592 12.5827 5.32163 12.6243 5.37657C12.6658 5.4315 12.6956 5.49449 12.7118 5.56155C12.8978 6.23148 12.9792 6.92634 12.953 7.62132C12.939 8.36016 12.8324 9.08659 12.6236 9.51655C12.5968 9.57867 12.5577 9.63469 12.5087 9.68122C12.4597 9.72775 12.4018 9.76383 12.3385 9.78729C12.2752 9.81075 12.2079 9.82109 12.1405 9.8177C12.0732 9.81431 12.0072 9.79725 11.9466 9.76755C11.8859 9.73786 11.8319 9.69614 11.7878 9.64492C11.7437 9.5937 11.7104 9.53403 11.6898 9.46953C11.6693 9.40502 11.662 9.337 11.6684 9.26959C11.6748 9.20217 11.6947 9.13675 11.7269 9.07728C11.8707 8.77925 11.948 8.2096 11.9588 7.60579C11.9826 7.02411 11.9185 6.44216 11.7687 5.87975V5.87199ZM14.3413 4.00936C14.2905 3.88586 14.2906 3.74714 14.3416 3.62371C14.3926 3.50029 14.4904 3.40227 14.6134 3.35123C14.7364 3.30018 14.8746 3.30028 14.9976 3.35152C15.1205 3.40275 15.2181 3.50091 15.269 3.62441C15.7328 4.73889 15.9817 6.14363 16.0034 7.53905C16.025 8.93447 15.8225 10.2895 15.3849 11.3838C15.3606 11.445 15.3244 11.5007 15.2786 11.5479C15.2328 11.595 15.1782 11.6326 15.1179 11.6586C15.0576 11.6845 14.9928 11.6983 14.9272 11.6991C14.8616 11.6999 14.7965 11.6877 14.7356 11.6632C14.6747 11.6388 14.6192 11.6025 14.5722 11.5565C14.5253 11.5105 14.4878 11.4557 14.4619 11.3951C14.4361 11.3346 14.4224 11.2695 14.4216 11.2037C14.4208 11.1378 14.4329 11.0725 14.4573 11.0113C14.8423 10.0319 15.0201 8.79322 14.9969 7.54215C14.9737 6.29109 14.7526 5.00276 14.3351 4.0016L14.3413 4.00936ZM5.85805 4.61471H1.70068C1.53295 4.61512 1.37219 4.68209 1.25344 4.80101C1.1347 4.91994 1.0676 5.08117 1.06679 5.24956V10.3221C1.0676 10.4905 1.1347 10.6518 1.25344 10.7707C1.37219 10.8896 1.53295 10.9566 1.70068 10.957H5.8596C5.8596 10.957 6.16881 11.0641 6.20128 11.0858L8.83733 13.3163V7.5732V1.83007L6.26467 4.4269C6.21442 4.48583 6.15206 4.53313 6.08187 4.56555C6.01167 4.59798 5.93532 4.61475 5.85805 4.61471Z" fill="white"/>
</svg>
