<svg width="40" height="40" viewBox="0 0 40 40" fill="none" xmlns="http://www.w3.org/2000/svg">
<path fill-rule="evenodd" clip-rule="evenodd" d="M39 20C39 30.4934 30.4934 39 20 39C9.50659 39 1 30.4934 1 20C1 9.50659 9.50659 1 20 1C30.4934 1 39 9.50659 39 20ZM40 20C40 31.0457 31.0457 40 20 40C8.9543 40 0 31.0457 0 20C0 8.9543 8.9543 0 20 0C31.0457 0 40 8.9543 40 20ZM31.8159 15.2483L31.8148 15.2375C31.7936 15.0462 31.5829 13.3447 30.7127 12.4793C29.707 11.4614 28.5668 11.3378 28.0184 11.2785C27.973 11.2736 27.9315 11.2691 27.8943 11.2644L27.8506 11.26C24.5456 11.0315 19.5543 11.0004 19.5043 11.0002L19.4999 11L19.4955 11.0002C19.4455 11.0004 14.4542 11.0315 11.1195 11.26L11.0754 11.2644C11.0463 11.2681 11.0147 11.2716 10.9808 11.2753L10.9583 11.2778C10.4162 11.3372 9.28823 11.4611 8.27963 12.5158C7.45089 13.3719 7.21133 15.0369 7.18673 15.224L7.18387 15.2483C7.17643 15.3279 7 17.2228 7 19.1252V20.9035C7 22.8058 7.17643 24.7007 7.18387 24.7805L7.1852 24.7925C7.20637 24.9807 7.41694 26.6509 8.28306 27.5167C9.22872 28.5005 10.4244 28.6307 11.0676 28.7007L11.0755 28.7015L11.0756 28.7015C11.1738 28.7122 11.2584 28.7214 11.3165 28.7311L11.3743 28.7387C13.2826 28.9113 19.2657 28.9964 19.5194 28.9998L19.527 29L19.5346 28.9998C19.5846 28.9996 24.5757 28.9685 27.8807 28.74L27.9244 28.7356C27.9662 28.7304 28.0131 28.7257 28.0646 28.7206L28.065 28.7206C28.6042 28.6661 29.7258 28.553 30.7202 27.5129C31.5489 26.6565 31.7887 24.9915 31.8131 24.8046L31.8159 24.7803C31.8234 24.7005 32 22.8058 32 20.9035V19.1252C31.9998 17.2228 31.8234 15.3281 31.8159 15.2483ZM30.5348 20.9035C30.5348 22.6642 30.373 24.4775 30.3578 24.644C30.2956 25.1025 30.0429 26.1559 29.6391 26.5731C29.0165 27.2242 28.377 27.2888 27.9101 27.3357C27.8536 27.3414 27.8014 27.3468 27.7541 27.3524C24.5574 27.5722 19.7545 27.6059 19.5333 27.6072C19.2851 27.6037 13.3896 27.518 11.5395 27.3546C11.4447 27.3399 11.3422 27.3287 11.2343 27.3171L11.2341 27.317C10.6865 27.2574 9.93704 27.1757 9.36071 26.5731L9.34717 26.5593C8.95044 26.1664 8.70497 25.1814 8.6426 24.6494C8.63096 24.5236 8.46502 22.6889 8.46502 20.9035V19.1252C8.46502 17.3664 8.62638 15.5551 8.64202 15.3852C8.71622 14.8451 8.97371 13.8555 9.36071 13.4555C10.0023 12.7847 10.6789 12.7103 11.1263 12.6612L11.1369 12.66C11.1757 12.6557 11.212 12.6517 11.2457 12.6476C14.4565 12.429 19.2298 12.3946 19.4933 12.3927L19.4999 12.3927C19.6735 12.3938 24.5091 12.4267 27.7236 12.6476C27.7623 12.6522 27.8046 12.6568 27.8499 12.6618L27.8525 12.6621C28.3127 12.712 29.0083 12.7874 29.6467 13.4347L29.6526 13.4407C30.0494 13.8336 30.2948 14.8359 30.3572 15.3785C30.3683 15.4973 30.5348 17.336 30.5348 19.1252V20.9035ZM23.554 18.8875L17.7805 16.0822C17.4485 15.9209 17.0561 15.9269 16.7307 16.0982C16.4051 16.2696 16.2109 16.5723 16.2109 16.9084V22.4708C16.2109 22.8053 16.4039 23.1075 16.7273 23.2791C16.8962 23.3687 17.0834 23.4136 17.2711 23.4136C17.4429 23.4136 17.6152 23.3759 17.7737 23.3001L23.5474 20.5432C23.8901 20.3794 24.1041 20.063 24.1057 19.7172C24.1071 19.3714 23.8957 19.0536 23.554 18.8875ZM17.7424 21.7711V17.6138L22.0574 19.7105L17.7424 21.7711Z" fill="white"/>
</svg>
